<?xml version="1.0" encoding="UTF-8"?>
<svg id="Layer_2" data-name="Layer 2" xmlns="http://www.w3.org/2000/svg" viewBox="0 0 1099.06 361.78">
  <defs>
    <style>
      .cls-1 {
        fill: #2b3962;
      }
    </style>
  </defs>
  <g id="Layer_2-2" data-name="Layer 2">
    <g id="Layer_1-2" data-name="Layer 1-2">
      <path class="cls-1" d="m515.28.51c.72.03,1.45.06,2.18.09,7.78.44,14.93,1.39,21.07,6.53,2.05,2.32,3.84,4.79,5.62,7.31,1.05,1.44,2.1,2.88,3.16,4.32.53.73,1.06,1.46,1.61,2.21,2.49,3.35,5.1,6.6,7.73,9.85,4.05,5.02,8.04,10.08,11.95,15.2,3.53,4.62,7.1,9.21,10.67,13.8.59.76,1.19,1.52,1.8,2.31,1.21,1.56,2.43,3.12,3.64,4.67,2.94,3.78,5.88,7.55,8.81,11.33,1.17,1.5,2.33,3,3.5,4.5,11.67,15,23.33,30,35,45,.58.74,1.16,1.49,1.75,2.25,1.16,1.5,2.33,2.99,3.49,4.49,2.97,3.81,5.93,7.63,8.9,11.44,5.94,7.63,11.86,15.27,17.75,22.94,4.9,6.37,9.85,12.71,14.79,19.06,2.33,2.99,4.65,5.98,6.98,8.97,1.7,2.18,3.39,4.36,5.09,6.54.61.78,1.22,1.56,1.84,2.37.63.81,1.26,1.62,1.9,2.45,1.25,1.61,2.5,3.21,3.75,4.82.61.78,1.22,1.57,1.85,2.37l8.41,10.81v-3.3c.04-26.46.1-52.91.18-79.37.04-12.79.07-25.59.09-38.38.01-11.15.04-22.3.08-33.45.02-5.91.04-11.81.04-17.72,0-5.56.02-11.11.05-16.67,0-2.04.01-4.08,0-6.12,0-2.78.01-5.57.04-8.35,0-.81-.02-1.62-.02-2.46.06-3.74.39-5.96,2.4-9.15,2.55-2.43,4.59-3.27,7.95-4.29,1-.31,1.99-.63,3.02-.95,6.85-1.72,13.51-1.96,20.54-1.96.99,0,1.99,0,3.01-.01h6.3c3.16,0,6.31-.02,9.47-.04,28.09-.08,47.83,3.39,68.86,23.22,1.28,1.13,2.58,2.26,3.88,3.38,4.15,3.61,8.17,7.34,12.2,11.08,4.1,3.8,8.24,7.55,12.4,11.28,5.39,4.86,10.72,9.78,16.06,14.69,5.94,5.46,11.9,10.89,17.9,16.27,3.39,3.06,6.74,6.14,10.1,9.23,3.14,2.88,6.29,5.74,9.46,8.59,6.23,5.59,12.38,11.26,18.54,16.92,5.13,4.72,10.27,9.43,15.46,14.08,5.17,4.64,10.3,9.34,15.42,14.05,1.61,1.48,3.23,2.96,4.85,4.44,6.16,5.64,12.17,11.37,18,17.35,2.09,2.04,4.17,3.9,6.39,5.78,3.38,2.92,6.39,6.05,9.4,9.35l4.11,4.41c.92,1,1.83,2.01,2.73,3.04,4.79,5.43,8.73,9.39,16.06,10.18,3.02.1,6.02,0,9.03-.09-.03-.6-.06-1.19-.09-1.81-.92-19.42-1.09-38.8-1.11-58.23,0-2.55,0-5.1-.01-7.65-.01-8.01-.02-16.02-.03-24.03,0-9.2-.02-18.4-.05-27.6-.02-7.16-.03-14.32-.03-21.48,0-4.26,0-8.52-.02-12.78-.02-3.98-.02-7.97,0-11.95,0-1.46,0-2.92-.01-4.38-.01-1.99,0-3.98,0-5.97v-3.38c.25-1.82.84-3.34,1.77-4.57,7.35-5.33,20.8-3.47,29.49-3.42,2.61.01,5.21,0,7.82-.01,14.57-.01,24,1.41,28.29,4.27.3,2.87.41,5.53.39,8.41,0,.88.01,1.76.02,2.67.01,2.97,0,5.93,0,8.9,0,2.12.01,4.24.02,6.36.02,5.77.02,11.55.01,17.32v14.44c.01,11.36.01,22.71,0,34.07-.01,11.72,0,23.45.03,35.17.02,10.06.03,20.11.02,30.17,0,6.01,0,12.02.02,18.03.02,5.65.01,11.31,0,16.96v6.23c.01,2.83,0,5.66-.02,8.49,0,.82.02,1.65.03,2.5-.05,3.94-.25,5.85-2.41,9.26-2.29,2.2-4.09,3.2-7.06,4.28-.83.31-1.67.63-2.53.95-4.31,1.35-8.31,1.92-12.82,1.96-1.03,0-2.06.02-3.13.03-1.11,0-2.23,0-3.36,0-1.16,0-2.31,0-3.5.02-2.45,0-4.9.02-7.35.02-3.7,0-7.4.04-11.11.07-29.26.13-50.14-6.71-71.63-26.88-2.61-2.41-5.31-4.64-8.08-6.87-4.53-3.66-8.82-7.51-13.08-11.47-4.11-3.8-8.41-7.33-12.77-10.84-2.82-2.33-5.52-4.77-8.21-7.25-3.58-3.29-7.22-6.45-11-9.5-4.76-3.84-9.26-7.9-13.75-12.04-2.66-2.39-5.39-4.66-8.18-6.9-4.53-3.66-8.82-7.51-13.08-11.47-4.11-3.8-8.41-7.33-12.77-10.84-2.82-2.33-5.52-4.77-8.21-7.25-3.58-3.29-7.22-6.45-11-9.5-4.76-3.84-9.26-7.9-13.75-12.04-2.66-2.39-5.39-4.66-8.18-6.9-5.12-4.14-9.96-8.53-14.79-13-2.89-2.67-5.84-5.27-8.81-7.85-6.69-5.84-13.22-11.85-19.71-17.9-.63-.58-1.25-1.16-1.9-1.76-.61-.57-1.21-1.13-1.84-1.72-.53-.5-1.07-1-1.62-1.51-1.69-1.63-3.36-3.28-5.02-4.94-.54-.54-1.08-1.08-1.64-1.64-.41-.41-.83-.83-1.25-1.25.03.95.06,1.9.09,2.88,1.03,35.15,1.16,70.3,1.2,105.45.01,9.72.04,19.44.08,29.15.03,6.94.04,13.87.05,20.81,0,4.11.01,8.22.04,12.33.02,3.82.03,7.65.02,11.47,0,1.4,0,2.8.02,4.2.02,1.91,0,3.82,0,5.72v3.23c-.62,3.45-1.78,4.61-4.49,6.76-11.04,3.72-24.47,2.29-35.94,2.27h-6.65c-4.63,0-9.25,0-13.88,0-5.9,0-11.81,0-17.71,0h-20.25c-19.34.03-31.13-1.57-35.37-4.8-3.96-3.96-7.24-8.51-10.52-13.04-1.33-1.81-2.66-3.61-3.99-5.41-.64-.87-1.28-1.74-1.93-2.63-2.19-2.97-4.44-5.9-6.7-8.83-9.74-12.6-19.38-25.28-28.91-38.04-3.33-4.45-6.7-8.86-10.09-13.26-3.91-5.07-7.8-10.17-11.68-15.27-.68-.9-1.37-1.79-2.07-2.72-1.4-1.84-2.81-3.69-4.21-5.53-3.36-4.42-6.73-8.84-10.1-13.25-1.33-1.75-2.67-3.5-4-5.25-.66-.87-1.32-1.73-2-2.62-14.67-19.25-22.67-29.75-24-31.5-1.33-1.74-2.66-3.49-3.99-5.23-3.41-4.47-6.82-8.95-10.22-13.42-7.24-9.51-14.49-19.01-21.79-28.47-3.66,3.48-6.6,7.03-9.5,11.19l-2.64,3.75c-.46.66-.93,1.32-1.4,2-2.54,3.6-5.12,7.18-7.71,10.75-.54.75-1.09,1.51-1.65,2.29-4.58,6.34-9.22,12.63-13.87,18.92-3.95,5.34-7.85,10.72-11.73,16.11-5.04,7-10.14,13.96-15.27,20.89-3.94,5.34-7.85,10.71-11.73,16.11-5.04,7-10.14,13.96-15.27,20.89-3.94,5.34-7.85,10.71-11.73,16.11-7.34,10.19-14.8,20.29-22.27,30.4-1.18,1.6-2.36,3.19-3.53,4.79-1.16,1.58-2.33,3.15-3.5,4.73-2.98,4.03-5.91,8.08-8.79,12.18-.58.82-1.17,1.65-1.77,2.5-1.11,1.57-2.2,3.14-3.29,4.72-.5.7-1,1.41-1.51,2.13-.43.62-.86,1.23-1.3,1.87-5.17,5.68-12.29,6.19-19.54,6.69-7.51.3-15.02.29-22.54.26-3.52,0-7.04,0-10.56,0h-6.81c-1.03,0-2.07,0-3.14,0-15.81-.1-25.88-4.16-38.88-12.88-7.64-5.11-15.32-10.17-23.02-15.21-1.39-.91-2.78-1.82-4.17-2.73-2.87-1.88-5.75-3.77-8.62-5.65-6.1-4-12.19-8-18.29-12-3.33-2.18-6.66-4.37-9.98-6.55-1.33-.88-2.67-1.75-4-2.62-.66-.43-1.32-.87-2-1.31-32.67-21.44-65.33-42.88-98-64.31v1.83c-.06,14.72-.13,29.44-.23,44.17-.04,7.12-.08,14.24-.11,21.36-.03,6.87-.07,13.73-.12,20.6-.02,2.62-.03,5.25-.03,7.87,0,3.67-.04,7.33-.07,11v3.31c-.01,1-.03,2.01-.04,3.02,0,.87,0,1.73-.01,2.63-.47,2.7-1.23,3.57-3.38,5.21-9.06,2.59-18.87,2.31-28.22,2.26-2.28,0-4.55,0-6.83,0-15,.01-24.65-1.41-28.95-4.27-.3-3.09-.41-5.98-.39-9.07,0-.95-.01-1.9-.02-2.88,0-3.21,0-6.41,0-9.62,0-2.29,0-4.58-.02-6.87-.02-6.24-.02-12.47,0-18.71v-15.6c0-12.96,0-25.93,0-38.89,0-11.27,0-22.53-.03-33.8-.02-11.56-.03-23.12-.03-34.68C.03,66.6.03,60.1.01,53.61,0,47.51,0,41.4.01,35.3v-6.74C0,25.5.01,22.45.03,19.39c0-.9-.02-1.79-.03-2.72.05-3.99.86-6.83,2.44-8.52,2.16-.99,3.83-1.46,6.19-1.69.79-.08,1.58-.16,2.4-.24.85-.07,1.7-.14,2.56-.21s1.75-.15,2.67-.24c16.17-1.34,35.04-2.76,50.26,3.43.67.67,1.04,1.59,1.12,2.78v5.08c0,.99,0,1.98-.01,2.99v3.13c0,3.44,0,6.87-.02,10.31v7.13c0,6.27-.01,12.53-.02,18.8-.01,6.39-.01,12.78-.02,19.16-.01,12.54-.03,25.09-.05,37.63.74-.57,1.47-1.14,2.23-1.72,9.49-6.65,16.85-7.37,28.23-7.06,1.64.01,3.28.03,4.92.03,4.27.03,8.54.11,12.82.2,4.38.08,8.76.12,13.13.16,8.56.09,17.11.22,25.67.39-3.22,3.36-6.88,5.33-10.92,7.6-.69.46-1.37.93-2.08,1.4v2c1.13.91,2.44,1.81,3.93,2.7.86.54,1.73,1.09,2.62,1.64.95.59,1.91,1.18,2.89,1.79,2.03,1.28,4.07,2.55,6.1,3.83,1.07.67,2.14,1.34,3.23,2.02,5.2,3.27,10.37,6.59,15.55,9.9,2.1,1.35,4.2,2.69,6.3,4.04,1.05.67,2.1,1.34,3.18,2.04l9.75,6.24c9.66,6.18,19.32,12.36,28.95,18.61,8.28,5.36,16.59,10.67,24.91,15.98,3.94,2.52,7.88,5.05,11.82,7.58,1.72,1.11,3.44,2.21,5.16,3.32,2.16,1.39,4.32,2.79,6.48,4.18,4.62,2.97,9.15,5.85,14.15,8.14.27-.59.55-1.18.83-1.77,1.15-2.19,2.41-3.99,3.94-5.93.55-.71,1.11-1.41,1.68-2.14.6-.76,1.19-1.51,1.81-2.29,1.28-1.63,2.55-3.26,3.83-4.88.65-.83,1.31-1.66,1.98-2.52,2.99-3.81,5.97-7.65,8.94-11.48,1.17-1.5,2.33-3,3.5-4.5.58-.74,1.15-1.49,1.75-2.25,31.5-40.5,47.83-61.5,49-63,1.16-1.5,2.33-2.99,3.49-4.49,2.97-3.81,5.93-7.63,8.9-11.44,5.14-6.6,10.27-13.19,15.36-19.82,5.69-7.42,11.44-14.79,17.19-22.17,2.94-3.78,5.88-7.55,8.81-11.33,1.16-1.49,2.32-2.98,3.47-4.46.58-.74,1.15-1.48,1.75-2.25,8.35-10.74,13.06-16.79,14.13-18.16,1.18-1.52,2.34-3.05,3.49-4.59.61-.81,1.22-1.62,1.85-2.45.55-.73,1.1-1.48,1.66-2.23,4.71-5.32,12.3-5.87,19.02-6.31,17.42-.97,34.96-1,52.39-.18l-.03-.07Z"/>
      <path class="cls-1" d="m66.53,9.14c.67.67,1.04,1.59,1.12,2.78v5.08c0,.91,0,1.91-.01,2.99v3.13c0,3.44,0,6.87-.02,10.31v7.13c0,6.27-.01,12.53-.02,18.8-.01,6.39-.01,12.78-.02,19.16-.01,12.54-.03,25.09-.05,37.63.74-.57,1.47-1.14,2.23-1.72,9.49-6.65,16.85-7.37,28.23-7.06,1.64.01,3.28.03,4.92.03,4.27.03,8.54.11,12.82.2,4.38.08,8.76.12,13.13.16,8.56.09,17.11.22,25.67.39-3.22,3.36-6.88,5.33-10.92,7.6-.69.46-1.37.93-2.08,1.4v2c1.13.91,2.44,1.81,3.93,2.7.86.54,1.73,1.09,2.62,1.64.95.59,1.91,1.18,2.89,1.79,2.03,1.28,4.07,2.55,6.1,3.83,1.07.67,2.14,1.34,3.23,2.02,5.2,3.27,10.37,6.59,15.55,9.9,2.1,1.35,4.2,2.69,6.3,4.04,1.05.67,2.1,1.34,3.18,2.04l9.75,6.24c9.66,6.18,19.32,12.36,28.95,18.61,11.62,7.53,23.31,14.97,34.98,22.43,2.3,1.47,4.6,2.94,6.9,4.41,2.16,1.38,4.32,2.76,6.48,4.14,1.91,1.22,3.81,2.44,5.71,3.66,1.48.95,2.97,1.9,4.47,2.83,1.36.86,2.67,1.79,3.97,2.73v2h3v2c.7.08,1.4.16,2.12.25,3.57.93,5.97,2.52,8.88,4.75v2h3v2c.55.1,1.1.2,1.66.3,6.57,1.97,14.31,7.09,18.34,12.7.04,2.08-.29,4.08-1,6-2.97,2.81-5,3.38-9.04,3.37-1,0-2,0-3.04.02-1.08,0-2.16-.02-3.27-.03-1.12,0-2.25,0-3.39,0-2.37,0-4.75,0-7.12-.03-3.6-.02-7.2-.02-10.8,0-2.31,0-4.62,0-6.94-.02h-3.22c-15.92-.15-26.01-4.12-39.11-12.91-7.64-5.11-15.32-10.17-23.02-15.21-1.39-.91-2.78-1.82-4.17-2.73-2.87-1.88-5.75-3.77-8.62-5.65-6.1-4-12.19-8-18.29-12-3.33-2.18-6.66-4.37-9.98-6.55-1.33-.88-2.67-1.75-4-2.62-.66-.43-1.32-.87-2-1.31-32.67-21.44-65.33-42.88-98-64.31v1.83c-.06,14.72-.13,29.44-.23,44.17-.04,7.12-.08,14.24-.11,21.36-.03,6.87-.07,13.73-.12,20.6-.02,2.62-.03,5.25-.03,7.87,0,3.67-.04,7.33-.07,11v3.31c-.01,1-.03,2.01-.04,3.02,0,.87,0,1.73-.01,2.63-.47,2.7-1.23,3.57-3.38,5.21-9.06,2.59-18.87,2.31-28.22,2.26-2.28,0-4.55,0-6.83,0-15,.01-24.65-1.41-28.95-4.27-.3-3.09-.41-5.98-.39-9.07,0-.95-.01-1.9-.02-2.88,0-3.21,0-6.41,0-9.62,0-2.29,0-4.58-.02-6.87-.02-6.24-.02-12.47,0-18.71v-15.6c0-12.96,0-25.93,0-38.89,0-11.27,0-22.53-.03-33.8-.02-11.56-.03-23.12-.03-34.68C.04,66.56.04,60.06.02,53.57,0,47.47.01,41.36.02,35.26v-6.74c0-3.06,0-6.11.02-9.17,0-.9-.02-1.79-.03-2.72.05-3.99.86-6.83,2.44-8.52,2.16-.99,3.83-1.46,6.19-1.69.79-.08,1.58-.16,2.4-.24.85-.07,1.7-.14,2.56-.21.88-.08,1.77-.16,2.67-.24,16.17-1.34,35.04-2.76,50.26,3.43v-.02Z"/>
      <path class="cls-1" d="m299.59,5.95c.84.07,1.68.14,2.54.21,5.17.53,8.64,1.86,10.4,3.98.35,2.89.44,4.4-1.31,6.78-5.89,4.95-12.24,8.51-19.06,12.03-2.34,1.23-4.68,2.47-7.02,3.7-1.14.6-2.27,1.19-3.44,1.81-4.13,2.19-8.22,4.45-12.29,6.74-6.82,3.82-13.68,7.54-20.56,11.25-7.87,4.24-15.68,8.57-23.44,13-10.27,5.86-20.69,11.44-31.15,16.96-.61.32-1.21.64-1.84.97-2.23,1.18-4.46,2.36-6.7,3.51-1.57.87-3.26,1.95-5.09,3.24-9.85,6.57-18.12,7.08-29.74,6.79-1.75-.01-3.5-.03-5.25-.03-4.56-.03-9.12-.11-13.68-.2-4.67-.08-9.35-.12-14.02-.16-9.13-.09-18.27-.22-27.4-.39,2.85-2.93,5.42-5,9.02-6.96.99-.55,1.99-1.1,3-1.66,1.07-.58,2.13-1.16,3.23-1.76,2.28-1.26,4.56-2.52,6.84-3.78.58-.32,1.16-.64,1.76-.97,5.71-3.16,11.34-6.44,16.97-9.75,8.62-5.05,17.26-10.05,25.94-15,.58-.33,1.17-.67,1.77-1.01,4.76-2.71,9.52-5.43,14.27-8.14,4.15-2.37,8.31-4.73,12.46-7.1.58-.33,1.16-.66,1.76-1,8.23-4.7,16.43-9.46,24.62-14.25,2.89-1.68,5.77-3.36,8.66-5.04,1.78-1.04,3.56-2.08,5.33-3.12,2.41-1.42,4.83-2.81,7.26-4.21.68-.41,1.37-.81,2.07-1.23,17.43-9.89,44.83-6.95,64.12-5.21h-.03Z"/>
      <path class="cls-1" d="m547.34,275.76c.77-.03,1.54-.05,2.33-.07,7.01-.04,12.31,1.97,17.36,6.89,2.49,5.92,2.71,12.56.84,18.75-3.37,6.55-10.18,11.09-16.34,14.81h-2c2.53,4.73,5.88,8.41,9.5,12.31.58.65,1.16,1.29,1.76,1.96.56.61,1.13,1.22,1.71,1.85.51.55,1.02,1.11,1.54,1.68,1.04,1.01,2.54,1.42,4.49,1.21,2.31-5.44,3.41-10.1,3.79-16,.14-1.33.54-2.33,1.21-3,1.69-.07,3.38-.08,5.06-.06.92,0,1.84.02,2.79.03.71.01,1.42.02,2.15.04.68,8.34-1.28,15.17-4,23-.67,2-1.34,4-2,6,4.28,3.25,7.74,5.59,13,7,.07,4.1.07,6.77,0,8-1.52,1.52-2.88,1.32-5,1.44-5.09-.02-7.93-1.95-11.86-5.03-2.48-1.63-4.18-2.21-7.14-2.41-1.39.58-2.7,1.35-3.94,2.31-8.53,6.11-18.99,5.75-29.06,4.69-6.82-1.76-10.95-5.33-14.94-11.04-2.93-5.45-2.92-12.29-1.53-18.22,2.6-7.45,7.06-11.43,13.47-15.75-.65-3.23-1.83-5.67-3.5-8.5-3.37-5.72-4.48-10.86-3.07-17.52,1.72-5.51,4.74-8.88,9.57-11.98,4.53-2.37,8.81-2.37,13.81-2.38h0Zm-10.81,13.37c-1.53,3.07-1.65,5.7-1,9,1.76,3.82,3.82,7.41,6,11,6.13-1.16,10.56-5.35,14.56-9.94,1.83-3.89,1.6-5.96.44-10.06-1.58-2.06-2.69-2.85-5-4-6.12-.66-10.61-.82-15,4Zm-3.54,37.52c-3.41,3.45-4.37,6.67-4.9,11.42.2,4.63,1.67,7.35,4.44,11.06,4.5,3.49,9.36,3.61,14.88,3.5,5.15-.83,9-3.43,13.12-6.5-.66-.66-1.32-1.32-2-2-.46-.46-.92-.92-1.39-1.39-1.14-1.13-2.29-2.25-3.45-3.37-4.61-4.48-8.62-9.2-12.5-14.33-.55-.63-1.1-1.26-1.66-1.91-2.94,0-4.4,1.66-6.54,3.52Z"/>
      <path class="cls-1" d="m692.34,281.76c1.24-.05,2.49-.1,3.77-.15,2.28.35,4.08,1.24,5.41,2.68,2.03,2.89,3.78,5.8,5.47,8.9.32.58.63,1.16.96,1.75,1.03,1.87,2.05,3.75,3.07,5.63.71,1.3,1.42,2.59,2.13,3.89,1.79,3.26,3.57,6.53,5.35,9.8,1.56,2.87,3.13,5.74,4.7,8.61,5.33,9.74,8.43,15.5,9.32,17.27.01-.71.02-1.42.03-2.16.1-6.7.2-13.39.31-20.09.06-3.44.11-6.89.16-10.33.06-3.95.12-7.91.19-11.86.02-1.24.04-2.49.05-3.76.02-1.14.04-2.28.06-3.46.02-1.01.03-2.02.05-3.06.11-1.52.49-2.61,1.16-3.28,1.69-.07,3.38-.08,5.06-.06.92,0,1.84.02,2.79.03.71.01,1.42.02,2.15.04.02,9.87.04,19.75.05,29.62,0,4.58.01,9.17.02,13.75.01,4.42.02,8.84.02,13.27,0,1.69,0,3.38.01,5.07v7.08c0,.7,0,1.41.01,2.13,0,3.23-.38,5.58-1.12,7.07-1.87.22-3.75.37-5.62.5-1.04.09-2.09.19-3.16.28-4.21-1.02-5.26-2.67-7.63-6.18-3.22-5.3-6.2-10.71-9.14-16.17-1.29-2.38-2.58-4.75-3.88-7.13-.33-.61-.67-1.23-1.01-1.86-5.4-9.88-10.99-19.66-16.55-29.45-.01.74-.02,1.48-.03,2.23-.1,6.93-.2,13.86-.31,20.79-.06,3.56-.11,7.13-.16,10.69-.06,4.09-.12,8.19-.19,12.28-.02,1.29-.04,2.59-.05,3.9-.02,1.18-.04,2.36-.06,3.58-.02,1.05-.03,2.09-.05,3.17-.11,1.57-.49,2.69-1.16,3.36-1.69.07-3.38.08-5.06.06-.92,0-1.85-.02-2.79-.03-.71-.01-1.42-.02-2.15-.04-.02-10.02-.04-20.04-.05-30.07,0-4.65-.01-9.31-.02-13.96-.01-4.49-.02-8.97-.02-13.46,0-1.72,0-3.43-.01-5.15v-7.18c0-.72,0-1.43-.01-2.17.01-6.76,1.37-6.21,7.94-6.39v.02Z"/>
      <path class="cls-1" d="m134.5,283.83c8.96,5.78,13.31,12.13,15.82,22.57,2.38,13.76,2.04,29.06-5.32,41.3-5.04,6.99-11.12,11.24-19.46,13.44-12.94,1.25-24.71,1.04-35.31-7.06-8.34-7.97-10.07-18.85-10.69-29.94-.1-12.61,1.73-24.25,10.08-34.09,10.62-10.54,31.52-13.01,44.89-6.22h0Zm-35.65,13.94c-.56.61-1.12,1.22-1.7,1.85-4.36,6.82-5.14,13.95-5.05,21.9,0,.92.02,1.84.03,2.8.2,7.92.89,14.89,6.35,21,5.35,4.93,9.06,5.99,16.37,6.08,1.29.03,2.6.05,3.93.08,6.55-.57,10.54-3.44,14.76-8.33,6.91-9.67,6.78-21.62,5-33-1.75-7.58-4.32-12.8-11-17-.58-.37-1.16-.75-1.76-1.13-3.24-1.25-6.16-1.17-9.62-1.18-1.29-.02-2.57-.03-3.9-.05-5.75.56-9.62,2.69-13.41,6.99h0Z"/>
      <path class="cls-1" d="m206.41,281.9c2.15,0,4.3-.04,6.45-.07,8.61-.07,15.65-.09,22.49,5.69,4.98,5.97,6.58,10.94,6.04,18.7-1.05,5.88-4.48,9.99-8.86,13.92-1.32.69-2.65,1.36-4,2,.88.92,1.76,1.84,2.67,2.79,4.03,4.71,6.26,9.99,8.64,15.65.44,1,.88,2,1.34,3.03,2.4,5.59,3.97,10.46,4.35,16.54h-11c-2.17-4.2-4.2-8.38-5.96-12.76-.33-.81-.65-1.62-.99-2.45-.66-1.66-1.31-3.32-1.96-4.98-2.2-5.42-4.45-10.2-10.12-12.69-.63-.12-1.26-.24-1.91-.36-.63-.13-1.26-.26-1.9-.39-.71-.12-1.43-.24-2.16-.36-1.98-.33-3.96-.66-6-1v35h-11c-.02-10.02-.04-20.04-.05-30.07,0-4.65,0-9.31-.02-13.96,0-4.49-.02-8.97-.02-13.46,0-1.72,0-3.43,0-5.15v-7.18c0-.72,0-1.43,0-2.17.02-8.85,6.79-6.23,14.01-6.25l-.02-.02Zm-2.88,9.24v26c7.75.15,15.1-1.19,22.06-4,2.83-2.92,3.16-4.77,3.31-8.75-.08-4.07-.48-7.09-3.5-10.13-6.34-3.77-14.85-3.12-21.88-3.12h.01Z"/>
      <path class="cls-1" d="m976.53,282.14c2.1-.13,4.21-.23,6.31-.31,1.17-.06,2.34-.12,3.55-.18,1.03.16,2.08.32,3.14.49,2.52,3.49,3.96,7.24,5.42,11.27.22.61.44,1.21.67,1.84.73,1.99,1.44,3.99,2.16,5.98.51,1.39,1.01,2.79,1.52,4.18,1.33,3.66,2.65,7.32,3.98,10.98,1.61,4.44,3.22,8.89,4.83,13.33,1.26,3.46,2.51,6.91,3.76,10.37.23.64.46,1.28.7,1.93.62,1.72,1.24,3.43,1.86,5.15.69,1.87,1.43,3.72,2.24,5.54.57,1.61.86,4.09.86,7.42h-12c-2.31-6.6-4.62-13.2-7-20h-31c-2.31,6.6-4.65,13.27-7,20h-11c-.52-5.87,1.35-10.42,3.4-15.8.35-.95.71-1.9,1.07-2.88,1.15-3.07,2.3-6.13,3.46-9.19.78-2.09,1.57-4.19,2.35-6.28,1.53-4.1,3.08-8.2,4.62-12.3,1.74-4.61,3.47-9.23,5.19-13.85,2.01-5.39,3.48-9.35,4.43-11.87.26-.7.53-1.4.8-2.13.45-1.13,1-2.37,1.67-3.7h.01Zm6,13.01c-1.72,4.64-3.42,9.29-5.13,13.93-.58,1.58-1.16,3.16-1.75,4.74-.84,2.27-1.67,4.54-2.5,6.81-.26.71-.52,1.41-.8,2.14-1.07,2.93-1.83,5.22-1.83,8.37h25c-1.59-5.93-3.35-11.77-5.26-17.54-.4-1.09-.79-2.18-1.2-3.31-.4-1.1-.81-2.2-1.22-3.33-.42-1.14-.83-2.29-1.26-3.46-1.01-2.78-2.03-5.57-3.05-8.35h-1Z"/>
      <path class="cls-1" d="m389.53,282.14c2.1-.13,4.21-.23,6.31-.31,1.17-.06,2.34-.12,3.55-.18,1.03.16,2.08.32,3.14.49,2.52,3.49,3.96,7.24,5.42,11.27.22.61.44,1.21.67,1.84.73,1.99,1.44,3.99,2.16,5.98.51,1.39,1.01,2.79,1.52,4.18,1.33,3.66,2.65,7.32,3.98,10.98,1.61,4.44,3.22,8.89,4.83,13.33,1.26,3.46,2.51,6.91,3.76,10.37.23.64.46,1.28.7,1.93.62,1.72,1.24,3.43,1.86,5.15.69,1.87,1.43,3.72,2.24,5.54.57,1.61.86,4.09.86,7.42h-12c-2.31-6.6-4.62-13.2-7-20h-31c-2.31,6.6-4.65,13.27-7,20h-11c-.52-5.87,1.35-10.42,3.4-15.8.35-.95.71-1.9,1.07-2.88,1.15-3.07,2.3-6.13,3.46-9.19.78-2.09,1.57-4.19,2.35-6.28,1.53-4.1,3.08-8.2,4.62-12.3,1.74-4.61,3.47-9.23,5.19-13.85,2.01-5.39,3.48-9.35,4.43-11.87.26-.7.53-1.4.8-2.13.45-1.13,1-2.37,1.67-3.7h.01Zm6,13.01c-1.72,4.64-3.42,9.29-5.13,13.93-.58,1.58-1.16,3.16-1.75,4.74-.84,2.27-1.67,4.54-2.5,6.81-.26.71-.52,1.41-.8,2.14-1.07,2.93-1.83,5.22-1.83,8.37h25c-1.59-5.93-3.35-11.77-5.26-17.54-.4-1.09-.79-2.18-1.2-3.31-.4-1.1-.81-2.2-1.22-3.33-.42-1.14-.83-2.29-1.26-3.46-1.01-2.78-2.03-5.57-3.05-8.35h-1Z"/>
      <path class="cls-1" d="m.53,282.14h11c.33,10.89.66,21.78,1,33,7.31-8.83,14.6-17.65,21.62-26.71,1.71-2.21,3.4-4.31,5.38-6.29,1.73-.13,3.61-.17,5.62-.12,1,.02,2.01.04,3.04.05.77.02,1.54.05,2.34.07.47,2.63.41,4.38-1.07,6.64-1.57,1.88-3.2,3.69-4.86,5.48-1.2,1.33-2.39,2.67-3.59,4-.59.66-1.18,1.31-1.79,1.98-2.32,2.6-4.54,5.26-6.75,7.95-.67.81-1.35,1.64-2.04,2.47-2.11,2.74-4.02,5.57-5.9,8.46.36.46.72.92,1.09,1.4,6.62,8.46,13.21,16.94,19.66,25.54.5.67,1,1.33,1.52,2.02,3.82,5.11,5.73,9.13,5.73,12.04-4.38,1.3-7.62,1.38-12,0-4.96-4.22-8.5-10-12.16-15.33-2.47-3.57-5.05-7.03-7.65-10.51-2.75-3.7-5.47-7.43-8.2-11.16-.33,12.21-.66,24.42-1,37H.53v-78,.02Z"/>
      <path class="cls-1" d="m890.3,281.79c1.43-.02,2.86-.04,4.29-.08,9.62-.26,17.99.18,25.58,6.88,5.33,5.84,5.76,12.03,5.61,19.59-.59,6.99-3.2,12.04-8.25,16.97-4.9,3-9.65,5.14-15.45,5.1h-2.32c-.96,0-1.93-.02-2.92-.03-3.07-.02-6.18-.04-9.31-.06v30h-11c-.02-10.02-.04-20.04-.05-30.07,0-4.65-.01-9.31-.02-13.96-.01-4.49-.02-8.97-.02-13.46,0-1.72,0-3.43-.01-5.15v-7.18c0-.72,0-1.43-.01-2.17.02-8.8,6.7-6.3,13.9-6.36l-.02-.02Zm-2.77,9.35v30c7.63.21,14.77-1.25,21.44-4.38,3.41-3.49,4.85-6.11,4.94-11-.11-4.57-1.31-7.14-4.38-10.62-6.28-5.06-14.33-4-22-4Z"/>
      <path class="cls-1" d="m798.02,282h29.02c4.25.01,6.75.39,7.49,1.14.08,2.33.08,4.67,0,7-.67.67-2.02,1.04-4.05,1.11-1.35,0-2.7,0-4.05-.02h-2.15c-2.27,0-4.54-.02-6.82-.03-1.54,0-3.07,0-4.61-.01-3.78-.01-7.55-.03-11.33-.05v24h28c.33,2.31.66,4.65,1,7-.67.67-1.89,1.04-3.68,1.11-1.17,0-2.34-.01-3.54-.02h-3.44c-1.45,0-2.92-.02-4.4-.03-4.6-.02-9.2-.04-13.94-.06v28h33v9c-6.11.02-12.21.04-18.32.05-2.08,0-4.16.01-6.24.02-2.98.01-5.96.02-8.94.02-.93,0-1.88,0-2.83.02-.95.01-1.82.01-2.61,0h-2.31c-1.17-.08-2.08-.45-2.75-1.12-.1-2.37-.14-4.71-.13-7.07v-63.99c.03-6.61,1.18-6.05,7.63-6.08h0Z"/>
      <path class="cls-1" d="m293.02,282h29.02c4.25.01,6.75.39,7.49,1.14.08,2.33.08,4.67,0,7-.67.67-2.02,1.04-4.05,1.11-1.35,0-2.7,0-4.05-.02h-2.15c-2.27,0-4.54-.02-6.82-.03-1.54,0-3.07,0-4.61-.01-3.78-.01-7.55-.03-11.33-.05v24h28c.33,2.31.66,4.65,1,7-.67.67-1.89,1.04-3.68,1.11-1.17,0-2.34-.01-3.54-.02h-3.44c-1.45,0-2.92-.02-4.4-.03-4.6-.02-9.2-.04-13.94-.06v28h33v9c-6.11.02-12.21.04-18.32.05-2.08,0-4.16.01-6.24.02-2.98.01-5.96.02-8.94.02-.93,0-1.88,0-2.83.02-.95.01-1.82.01-2.61,0h-2.31c-1.17-.08-2.08-.45-2.75-1.12-.1-2.37-.14-4.71-.13-7.07v-63.99c.03-6.61,1.18-6.05,7.63-6.08h0Z"/>
      <path class="cls-1" d="m1054.53,282.14h11v69h30c.67,4,.67,7,0,9-5.68.02-11.36.04-17.03.05-1.93,0-3.87.01-5.8.02-2.77.01-5.55.02-8.32.02-.87,0-1.75,0-2.64.02-2.07,0-4.14-.05-6.21-.11-1.69-1.69-1.12-3.76-1.12-6.01,0-.72,0-1.43.01-2.17v-2.28c0-2.49,0-4.99.02-7.48v-5.17c0-4.55.01-9.1.02-13.65.01-4.64.01-9.28.02-13.91.01-9.11.03-18.21.05-27.32h0Z"/>
    </g>
  </g>
</svg>