<?xml version="1.0" encoding="UTF-8"?>
<svg version="1.1" xmlns="http://www.w3.org/2000/svg" width="1124" height="380">
<path d="M0 0 C1.07785767 0.04616455 1.07785767 0.04616455 2.17749023 0.09326172 C9.95469666 0.53820101 17.10630233 1.4880427 23.25 6.625 C25.29534097 8.94807674 27.08712377 11.41320779 28.875 13.9375 C29.92494973 15.37916047 30.97709071 16.81922724 32.03125 18.2578125 C32.56363281 18.98645508 33.09601562 19.71509766 33.64453125 20.46582031 C36.13635147 23.81704568 38.74855977 27.06637607 41.375 30.3125 C45.42397723 35.332711 49.41005735 40.38947604 53.32958984 45.51171875 C56.86391982 50.1295761 60.42783604 54.72385465 64 59.3125 C64.59280762 60.07409424 65.18561523 60.83568848 65.79638672 61.62036133 C67.00934681 63.17845805 68.22240086 64.73648163 69.43554688 66.29443359 C72.37513338 70.07017266 75.31247715 73.84765535 78.25 77.625 C79.41665539 79.12500877 80.58332207 80.62500876 81.75 82.125 C93.41666667 97.125 105.08333333 112.125 116.75 127.125 C117.32782227 127.86790283 117.90564453 128.61080566 118.50097656 129.3762207 C119.66443312 130.87211662 120.82784478 132.36804745 121.99121094 133.86401367 C124.95661998 137.67709776 127.92287262 141.48952064 130.890625 145.30078125 C136.82983564 152.92959492 142.75235967 160.57006643 148.640625 168.23828125 C153.54394626 174.61221641 158.4948486 180.94946734 163.43554688 187.29443359 C165.76263136 190.28344712 168.0882956 193.2735636 170.41375732 196.26383972 C172.11007454 198.44507474 173.80647872 200.62624206 175.50292969 202.80737305 C176.11102478 203.58920456 176.71911987 204.37103607 177.34564209 205.17655945 C177.9740802 205.98454483 178.60251831 206.79253021 179.25 207.625 C180.49869862 209.2304682 181.74739654 210.83593695 182.99609375 212.44140625 C183.60517578 213.22451172 184.21425781 214.00761719 184.84179688 214.81445312 C187.64453125 218.41796875 190.44726562 222.02148438 193.25 225.625 C193.25146656 224.53701772 193.25293312 223.44903543 193.25444412 222.32808399 C193.29101664 195.87196467 193.35043667 169.41597216 193.43390274 142.95995808 C193.47373551 130.16609292 193.50610648 117.37228965 193.52099609 104.57836914 C193.53399063 93.42898492 193.56089903 82.27973664 193.60461307 71.13042897 C193.62727728 65.22530775 193.64290771 59.3203545 193.64188385 53.41518593 C193.64114017 47.85918269 193.65897333 42.30355145 193.69116783 36.74764442 C193.6996995 34.70665177 193.70139473 32.66561754 193.69580269 30.62461472 C193.68919044 27.84084281 193.70701666 25.05826414 193.73101807 22.27461243 C193.72325765 21.4642956 193.71549723 20.65397876 193.70750165 19.81910688 C193.76463891 16.08351422 194.1023969 13.85978746 196.10934067 10.66740704 C198.65852285 8.23522759 200.70122326 7.3933072 204.0625 6.375 C205.05894531 6.06046875 206.05539062 5.7459375 207.08203125 5.421875 C213.93637743 3.6977238 220.59505618 3.46535676 227.6171875 3.45703125 C228.61017853 3.45370285 229.60316956 3.45037445 230.62625122 3.44694519 C232.72576436 3.44189705 234.82528548 3.43953621 236.92480469 3.43969727 C240.08021953 3.43753075 243.23527282 3.4194077 246.390625 3.40039062 C274.48372331 3.3210832 294.2221124 6.7922458 315.25 26.625 C316.5349071 27.75771422 317.82600814 28.88346611 319.125 30 C323.27469555 33.60547318 327.29764299 37.34333584 331.3293457 41.0793457 C335.42945339 44.87622428 339.56979605 48.62497868 343.73046875 52.35546875 C349.12037666 57.21056409 354.44951805 62.13279542 359.79101562 67.04101562 C365.72889501 72.49601791 371.68642391 77.92691889 377.6875 83.3125 C381.07321544 86.36790174 384.4308191 89.45356984 387.7890625 92.5390625 C390.92667086 95.41922607 394.08020941 98.28031614 397.25 101.125 C403.47569011 106.71419783 409.63053078 112.38024058 415.79101562 118.04101562 C420.92473745 122.75725563 426.06247157 127.46782591 431.25 132.125 C436.4228389 136.76982982 441.54981976 141.46344577 446.66601562 146.17041016 C448.27952135 147.65210978 449.89728796 149.1290489 451.515625 150.60546875 C457.67808459 156.24222088 463.68818952 161.9773565 469.51953125 167.95703125 C471.60457812 169.99435172 473.69302813 171.86155631 475.9140625 173.73828125 C479.29454924 176.6577745 482.30693687 179.78603867 485.31640625 183.0859375 C486.68649493 184.55718685 488.05661032 186.02841344 489.42895508 187.49755859 C490.35098813 188.49882759 491.26095956 189.51133989 492.15844727 190.53466797 C496.94750211 195.96684684 500.89189367 199.92505556 508.21603394 200.7144165 C511.23250878 200.81454403 514.23413002 200.7208333 517.25 200.625 C517.22077076 200.02883346 517.19154152 199.43266691 517.16142654 198.81843472 C516.24111567 179.40268729 516.07136853 160.01944184 516.04981136 140.58661389 C516.04683951 138.03594525 516.04272904 135.4852807 516.03830719 132.93461418 C516.02474794 124.92512369 516.01501335 116.91564295 516.0111053 108.90614182 C516.00658711 99.7051364 515.98881955 90.50427676 515.9601047 81.3033157 C515.93853526 74.14186666 515.92840434 66.98045896 515.92706418 59.81897777 C515.92601709 55.55861301 515.9201237 51.29838755 515.90224457 47.03805733 C515.88583586 43.05440367 515.88357282 39.07099562 515.89238358 35.08732033 C515.89315656 33.62596225 515.88877694 32.16459122 515.87892532 30.70326614 C515.86629058 28.7132737 515.87384327 26.72318325 515.88250732 24.73316956 C515.88030748 23.06237508 515.88030748 23.06237508 515.8780632 21.35782719 C516.25 18.625 516.25 18.625 517.6471138 16.78834438 C524.99671846 11.45414081 538.44747633 13.32174448 547.13818359 13.36425781 C549.74470277 13.37497821 552.35053295 13.36431301 554.95703125 13.3515625 C576.81014353 13.33176235 576.81014353 13.33176235 583.25 17.625 C583.5530117 20.49761348 583.65847473 23.15608841 583.63768005 26.03205872 C583.64306559 26.91228705 583.64845113 27.79251538 583.65399987 28.69941729 C583.66837603 31.66669464 583.66115199 34.63353192 583.65405273 37.60083008 C583.65975135 39.72106793 583.66671362 41.8413027 583.67485046 43.96153259 C583.69285558 49.73433696 583.69159943 55.50698994 583.68590808 61.279814 C583.68282609 66.09353511 583.68889779 70.90722671 583.69494683 75.72094363 C583.70901528 87.07611283 583.70741217 98.43120684 583.69604492 109.78637695 C583.68456765 121.510694 583.69862765 133.2347822 583.7254414 144.95906907 C583.74757918 155.01432244 583.75423992 165.06950387 583.74836498 175.12477988 C583.74498885 181.13496257 583.74745372 187.14499863 583.76461601 193.1551609 C583.78005184 198.8080038 583.7761668 204.46050725 583.75731087 210.11333656 C583.75361534 212.18982375 583.75676137 214.26633589 583.76719666 216.34280014 C583.78034256 219.1745914 583.76891574 222.00524843 583.75120544 224.83699036 C583.76081045 225.66150674 583.77041546 226.48602313 583.78031152 227.33552486 C583.72951329 231.27511965 583.53111507 233.18173777 581.36882114 236.59124279 C579.07876702 238.78935852 577.28322421 239.79473665 574.3125 240.875 C573.47847656 241.18953125 572.64445312 241.5040625 571.78515625 241.828125 C567.47996218 243.18137552 563.47219305 243.75203799 558.96337891 243.78613281 C557.93105133 243.79574036 556.89872375 243.8053479 555.83511353 243.81524658 C554.17263077 243.8216214 554.17263077 243.8216214 552.4765625 243.828125 C551.32062592 243.83382507 550.16468933 243.83952515 548.97372437 243.84539795 C546.52432161 243.85483942 544.0749062 243.86137854 541.62548828 243.86523438 C537.92326833 243.87487432 534.22161945 243.90587933 530.51953125 243.9375 C501.26132976 244.07012831 480.38419663 237.22847842 458.890625 217.0546875 C456.27625101 214.64915404 453.5823239 212.4112729 450.8125 210.1875 C446.27763839 206.52993736 441.99463817 202.67882973 437.73291016 198.71337891 C433.62220724 194.91101193 429.32724416 191.38229408 424.96484375 187.87109375 C422.14326505 185.5366941 419.44409288 183.10509402 416.75 180.625 C413.17207537 177.33168301 409.53460334 174.17848679 405.75 171.125 C400.99260332 167.28664586 396.49216082 163.22877641 391.99609375 159.08984375 C389.33124834 156.69792703 386.60168175 154.43245116 383.8125 152.1875 C379.27763839 148.52993736 374.99463817 144.67882973 370.73291016 140.71337891 C366.62220724 136.91101193 362.32724416 133.38229408 357.96484375 129.87109375 C355.14326505 127.5366941 352.44409288 125.10509402 349.75 122.625 C346.17207537 119.33168301 342.53460334 116.17848679 338.75 113.125 C333.99260332 109.28664586 329.49216082 105.22877641 324.99609375 101.08984375 C322.33124834 98.69792703 319.60168175 96.43245116 316.8125 94.1875 C311.68749154 90.05088603 306.85436845 85.66180784 302.02734375 81.1875 C299.13366523 78.51766441 296.18613472 75.9222541 293.21484375 73.33984375 C286.52532137 67.50147332 279.99679797 61.48849392 273.5 55.4375 C272.87407959 54.85540771 272.24815918 54.27331543 271.60327148 53.67358398 C270.99684814 53.10712158 270.3904248 52.54065918 269.765625 51.95703125 C269.23227539 51.45921143 268.69892578 50.9613916 268.14941406 50.44848633 C266.45532975 48.82212183 264.79040684 47.1728849 263.13128662 45.5110321 C262.59155087 44.97061122 262.05181511 44.43019033 261.49572372 43.87339306 C260.87909048 43.25543849 260.87909048 43.25543849 260.25 42.625 C260.27865646 43.5741478 260.30731293 44.52329559 260.33683777 45.50120544 C261.36663337 80.64748354 261.50032818 115.79685096 261.53926277 150.95554543 C261.55014295 160.67345972 261.57507253 170.39111193 261.61874419 180.10893637 C261.64882819 187.04488261 261.66370131 193.98075874 261.66702431 200.91676897 C261.66936599 205.02547213 261.67822645 209.13390873 261.70348549 213.24254036 C261.72666152 217.06727494 261.7310426 220.89156407 261.72072411 224.71635056 C261.72022756 226.11603593 261.72658293 227.51574296 261.74028015 228.9153614 C261.7579138 230.82293326 261.74853546 232.73069807 261.73774719 234.63832092 C261.74013555 235.70446153 261.7425239 236.77060213 261.74498463 237.86905003 C261.12558427 241.31771552 259.96407535 242.47932646 257.25 244.625 C246.21158906 248.34769127 232.78323927 246.91537893 221.30859375 246.890625 C219.09147601 246.89197509 216.87435856 246.89391848 214.65724182 246.89642334 C210.03033607 246.89935778 205.40350799 246.89513088 200.77661133 246.88574219 C194.87378228 246.87434205 188.97113505 246.88092151 183.06831264 246.89288712 C178.496431 246.90014551 173.92459181 246.89779968 169.35270882 246.89263153 C167.17720582 246.89130638 165.00169884 246.89290255 162.82620049 246.89759064 C133.81892622 246.94640271 133.81892622 246.94640271 127.45703125 242.09765625 C123.49283247 238.13825239 120.21677556 233.58972091 116.9375 229.0625 C115.60736483 227.25737465 114.2766362 225.45268646 112.9453125 223.6484375 C112.30754883 222.77928711 111.66978516 221.91013672 111.01269531 221.01464844 C108.81853194 218.04006795 106.57542443 215.11012444 104.3125 212.1875 C94.57585432 199.58332306 84.93642213 186.90465373 75.39794922 174.14990234 C72.06866524 169.70293825 68.7006593 165.28774066 65.30566406 160.890625 C61.39118342 155.81799591 57.50675107 150.72270448 53.625 145.625 C52.94211914 144.72821533 52.25923828 143.83143066 51.55566406 142.9074707 C50.15259366 141.06467345 48.74959957 139.2218181 47.34667969 137.37890625 C43.98235411 132.95999701 40.61610805 128.54255149 37.25 124.125 C35.91665685 122.37500748 34.58332353 120.62500747 33.25 118.875 C32.59 118.00875 31.93 117.1425 31.25 116.25 C9.24999999 87.37499999 9.24999999 87.37499999 7.24853516 84.74804688 C5.92012389 83.00452738 4.59167361 81.26103762 3.26318359 79.51757812 C-0.14578409 75.04367403 -3.5539956 70.569197 -6.9609375 66.09375 C-14.20007935 56.58563597 -21.44850306 47.08535301 -28.75 37.625 C-32.40760983 41.10874457 -35.346004 44.65043724 -38.25 48.8125 C-39.1296432 50.06289776 -40.00988114 51.31287727 -40.890625 52.5625 C-41.35404297 53.2225 -41.81746094 53.8825 -42.29492188 54.5625 C-44.83652643 58.16509652 -47.41795482 61.73882801 -50 65.3125 C-50.54462891 66.06684326 -51.08925781 66.82118652 -51.65039062 67.59838867 C-56.23330057 73.93456845 -60.87123879 80.22929374 -65.51855469 86.51831055 C-69.4635965 91.86269475 -73.36938631 97.23368512 -77.25 102.625 C-82.29007819 109.62715242 -87.39213385 116.58113256 -92.51953125 123.51953125 C-96.46415404 128.86357676 -100.36969056 134.23410781 -104.25 139.625 C-109.29007819 146.62715242 -114.39213385 153.58113256 -119.51953125 160.51953125 C-123.46415511 165.86357821 -127.36958115 171.23418549 -131.25 176.625 C-138.59003533 186.81856463 -146.05454606 196.91901627 -153.52050781 207.02050781 C-154.69914023 208.61566411 -155.87736325 210.21112299 -157.05517578 211.80688477 C-158.21914091 213.3836872 -159.38416644 214.95970747 -160.55029297 216.53491211 C-163.5261473 220.56469736 -166.46207712 224.61707359 -169.34375 228.71484375 C-169.92632568 229.53847412 -170.50890137 230.36210449 -171.10913086 231.21069336 C-172.21447904 232.77738222 -173.31213916 234.34953438 -174.40063477 235.92797852 C-174.89877686 236.63237061 -175.39691895 237.3367627 -175.91015625 238.0625 C-176.33949463 238.67996094 -176.76883301 239.29742187 -177.21118164 239.93359375 C-182.37811963 245.61288081 -189.49988628 246.12128898 -196.75 246.625 C-204.25986675 246.92748051 -211.7736462 246.91302062 -219.28833008 246.88574219 C-222.80762929 246.87501485 -226.32641934 246.88568558 -229.84570312 246.8984375 C-232.11718861 246.89711589 -234.38867378 246.89455345 -236.66015625 246.890625 C-237.69487564 246.89467346 -238.72959503 246.89872192 -239.79566956 246.90289307 C-255.60683867 246.80303591 -265.67646975 242.74687294 -278.671875 234.01953125 C-286.31484012 228.906003 -293.9957727 223.85227055 -301.6875 218.8125 C-303.07751362 217.90110215 -304.46748658 216.98964229 -305.85742188 216.078125 C-308.7301506 214.19426157 -311.60304971 212.3106584 -314.47607422 210.42724609 C-320.57450241 206.42912439 -326.67077626 202.42772059 -332.76712036 198.42642212 C-336.09464984 196.24246683 -339.42233303 194.05874579 -342.75 191.875 C-344.08333406 191.00000111 -345.4166674 190.12500111 -346.75 189.25 C-347.41 188.816875 -348.07 188.38375 -348.75 187.9375 C-381.41666667 166.5 -414.08333333 145.0625 -446.75 123.625 C-446.75238835 124.23037503 -446.75477671 124.83575006 -446.75723743 125.4594698 C-446.81634308 140.18156732 -446.89186454 154.90351708 -446.98571491 169.62543201 C-447.03070319 176.74482049 -447.07011073 183.86415861 -447.09643555 190.98364258 C-447.12184069 197.85018283 -447.16272476 204.71649023 -447.21318626 211.58289146 C-447.22991293 214.2067964 -447.24139092 216.83074006 -447.24761391 219.45469093 C-447.25719187 223.12083178 -447.28517611 226.78639305 -447.31762695 230.45239258 C-447.31547432 232.09129456 -447.31547432 232.09129456 -447.3132782 233.76330566 C-447.33208542 235.25879692 -447.33208542 235.25879692 -447.35127258 236.78450012 C-447.35588155 237.65190732 -447.36049051 238.51931452 -447.36523914 239.41300678 C-447.83477895 242.11239483 -448.59273504 242.98317587 -450.75 244.625 C-459.81053391 247.21823569 -469.61662776 246.93803057 -478.97021484 246.88574219 C-481.24734101 246.87501253 -483.52367866 246.88570805 -485.80078125 246.8984375 C-508.30510357 246.92159762 -508.30510357 246.92159762 -514.75 242.625 C-515.05289016 239.5376449 -515.15834837 236.64975794 -515.13768005 233.55909729 C-515.14306559 232.60803744 -515.14845113 231.65697759 -515.15399987 230.67709774 C-515.1683791 227.47023084 -515.16115122 224.26377095 -515.15405273 221.05688477 C-515.1597511 218.7659166 -515.16671327 216.47495128 -515.17485046 214.18399048 C-515.19285607 207.94646246 -515.1915996 201.70907454 -515.18590808 195.47152829 C-515.18282687 190.27239361 -515.18889675 185.07328626 -515.19494683 179.87415546 C-515.20982014 166.91101805 -515.20615808 153.94796874 -515.19408352 140.98483282 C-515.18415049 129.71900113 -515.19709042 118.45333366 -515.22101771 107.18752731 C-515.24538332 95.62852996 -515.25462261 84.06962784 -515.24836498 72.51060337 C-515.24498561 66.01758729 -515.24747535 59.5247069 -515.26461601 53.03170967 C-515.28002579 46.92745484 -515.27619602 40.82351474 -515.25731087 34.71927261 C-515.2536084 32.47423935 -515.25678129 30.22918307 -515.26719666 27.98417091 C-515.28029498 24.9283741 -515.26895831 21.87363644 -515.25120544 18.81788635 C-515.26081045 17.92139816 -515.27041546 17.02490997 -515.28031152 16.10125548 C-515.20835457 10.11574206 -515.20835457 10.11574206 -512.8429575 7.58320522 C-510.6817625 6.59375927 -509.01371135 6.12550192 -506.65234375 5.89453125 C-505.86037598 5.81372314 -505.0684082 5.73291504 -504.25244141 5.6496582 C-502.98279541 5.54463989 -502.98279541 5.54463989 -501.6875 5.4375 C-500.36371338 5.31797974 -500.36371338 5.31797974 -499.01318359 5.19604492 C-482.84226756 3.85638281 -463.97221895 2.43291093 -448.75 8.625 C-447.75 9.625 -447.75 9.625 -447.62695217 11.40348911 C-447.62787396 12.18424777 -447.62879576 12.96500643 -447.62974548 13.76942444 C-447.62768349 15.10933693 -447.62768349 15.10933693 -447.62557983 16.47631836 C-447.63097275 17.95769287 -447.63097275 17.95769287 -447.63647461 19.46899414 C-447.63632858 20.50301865 -447.63618256 21.53704315 -447.6360321 22.60240173 C-447.63673173 26.03834086 -447.64452642 29.47422653 -447.65234375 32.91015625 C-447.65420775 35.28527293 -447.65563174 37.66039 -447.65663147 40.0355072 C-447.66045803 46.30076144 -447.6702895 52.56599267 -447.68133545 58.83123779 C-447.6915466 65.2188689 -447.69612845 71.60650371 -447.70117188 77.99414062 C-447.71191164 90.53777026 -447.72879873 103.08138391 -447.75 115.625 C-447.01409134 115.05656372 -446.27818268 114.48812744 -445.51997375 113.90246582 C-436.02830075 107.24813937 -428.6692373 106.53475702 -417.29296875 106.84375 C-415.65247893 106.85871056 -414.01195285 106.8700795 -412.37141418 106.87805176 C-408.09782487 106.90828792 -403.82648524 106.9865914 -399.55377197 107.07568359 C-395.17613138 107.15820158 -390.79811956 107.19420244 -386.41992188 107.234375 C-377.86226014 107.31962476 -369.30641154 107.45577033 -360.75 107.625 C-363.97002457 110.98647418 -367.62770287 112.95109045 -371.66796875 115.22265625 C-372.35503906 115.68542969 -373.04210937 116.14820312 -373.75 116.625 C-373.75 117.285 -373.75 117.945 -373.75 118.625 C-372.05942279 119.98046957 -372.05942279 119.98046957 -369.81640625 121.3203125 C-368.95297607 121.86284668 -368.0895459 122.40538086 -367.19995117 122.96435547 C-366.24709229 123.55361816 -365.2942334 124.14288086 -364.3125 124.75 C-362.27832546 126.02553088 -360.24448359 127.30159242 -358.2109375 128.578125 C-356.61330566 129.57682617 -356.61330566 129.57682617 -354.98339844 130.59570312 C-349.7789396 133.86204727 -344.60899066 137.18180039 -339.4375 140.5 C-337.33735125 141.84522644 -335.23708985 143.19027701 -333.13671875 144.53515625 C-332.08790527 145.20691895 -331.0390918 145.87868164 -329.95849609 146.57080078 C-326.70883234 148.65135707 -323.45809214 150.73022139 -320.20703125 152.80859375 C-310.54338398 158.98733685 -300.88500905 165.17311913 -291.26171875 171.41455078 C-282.9828942 176.77877003 -274.66813791 182.08688222 -266.35546875 187.3984375 C-262.4121778 189.91889151 -258.47282069 192.44522501 -254.53933716 194.98094177 C-252.82044059 196.08889068 -251.1007651 197.19562037 -249.38085938 198.30200195 C-247.21786025 199.6939791 -245.0563273 201.08823801 -242.89648438 202.48510742 C-238.27826936 205.45347196 -233.74511104 208.33592867 -228.75 210.625 C-228.34056152 209.74932373 -228.34056152 209.74932373 -227.92285156 208.85595703 C-226.7722272 206.6672798 -225.5116631 204.86987911 -223.984375 202.9296875 C-223.43136719 202.22328125 -222.87835938 201.516875 -222.30859375 200.7890625 C-221.71175781 200.03367188 -221.11492187 199.27828125 -220.5 198.5 C-219.2238667 196.87246768 -217.94782762 195.24486147 -216.671875 193.6171875 C-216.01896484 192.78670898 -215.36605469 191.95623047 -214.69335938 191.10058594 C-211.69875932 187.28585672 -208.72480708 183.45516946 -205.75 179.625 C-204.58344619 178.12491223 -203.41677917 176.62491249 -202.25 175.125 C-201.6725 174.3825 -201.095 173.64 -200.5 172.875 C-153.25 112.12499999 -153.25 112.12499999 -151.49902344 109.8737793 C-150.33556688 108.37788338 -149.17215522 106.88195255 -148.00878906 105.38598633 C-145.04338002 101.57290224 -142.07712738 97.76047936 -139.109375 93.94921875 C-133.97405297 87.35298614 -128.8412807 80.75531163 -123.75 74.125 C-118.05530446 66.70886871 -112.30912408 59.33301416 -106.56445312 51.95556641 C-103.62486662 48.17982734 -100.6875226 44.40234485 -97.75 40.625 C-96.5924592 39.13670997 -95.43490708 37.64842875 -94.27734375 36.16015625 C-93.70097168 35.41910645 -93.12459961 34.67805664 -92.53076172 33.91455078 C-80.00390625 17.80859375 -80.00390625 17.80859375 -78.40039062 15.75732422 C-77.22436098 14.23788 -76.06313489 12.70692923 -74.91210938 11.16845703 C-73.99848633 9.95778564 -73.99848633 9.95778564 -73.06640625 8.72265625 C-72.24378296 7.61869507 -72.24378296 7.61869507 -71.40454102 6.49243164 C-66.69408369 1.1758774 -59.10454605 0.61834516 -52.38500977 0.18115234 C-34.96306763 -0.78706537 -17.42993476 -0.82111042 0 0 Z " fill="#E5C869" transform="translate(533.75,4.375)"/>
<path d="M0 0 C1 1 1 1 1.12304783 2.77848911 C1.12212604 3.55924777 1.12120424 4.34000643 1.12025452 5.14442444 C1.12231651 6.48433693 1.12231651 6.48433693 1.12442017 7.85131836 C1.11902725 9.33269287 1.11902725 9.33269287 1.11352539 10.84399414 C1.11367142 11.87801865 1.11381744 12.91204315 1.1139679 13.97740173 C1.11326827 17.41334086 1.10547358 20.84922653 1.09765625 24.28515625 C1.09579225 26.66027293 1.09436826 29.03539 1.09336853 31.4105072 C1.08954197 37.67576144 1.0797105 43.94099267 1.06866455 50.20623779 C1.0584534 56.5938689 1.05387155 62.98150371 1.04882812 69.36914062 C1.03808836 81.91277026 1.02120127 94.45638391 1 107 C1.73590866 106.43156372 2.47181732 105.86312744 3.23002625 105.27746582 C12.72169925 98.62313937 20.0807627 97.90975702 31.45703125 98.21875 C33.09752107 98.23371056 34.73804715 98.2450795 36.37858582 98.25305176 C40.65217513 98.28328792 44.92351476 98.3615914 49.19622803 98.45068359 C53.57386862 98.53320158 57.95188044 98.56920244 62.33007812 98.609375 C70.88773986 98.69462476 79.44358846 98.83077033 88 99 C84.77997543 102.36147418 81.12229713 104.32609045 77.08203125 106.59765625 C76.39496094 107.06042969 75.70789063 107.52320312 75 108 C75 108.66 75 109.32 75 110 C76.69057721 111.35546957 76.69057721 111.35546957 78.93359375 112.6953125 C79.79702393 113.23784668 80.6604541 113.78038086 81.55004883 114.33935547 C82.50290771 114.92861816 83.4557666 115.51788086 84.4375 116.125 C86.47167454 117.40053088 88.50551641 118.67659242 90.5390625 119.953125 C92.13669434 120.95182617 92.13669434 120.95182617 93.76660156 121.97070312 C98.9710604 125.23704727 104.14100934 128.55680039 109.3125 131.875 C111.41264875 133.22022644 113.51291015 134.56527701 115.61328125 135.91015625 C116.66209473 136.58191895 117.7109082 137.25368164 118.79150391 137.94580078 C122.04116766 140.02635707 125.29190786 142.10522139 128.54296875 144.18359375 C138.20661602 150.36233685 147.86499095 156.54811913 157.48828125 162.78955078 C169.11152301 170.32076694 180.79622053 177.75702352 192.46630859 185.21533203 C194.76743724 186.68599072 197.06838034 188.15693894 199.36914062 189.62817383 C201.53026654 191.0100415 203.6917089 192.39141443 205.85351562 193.7722168 C207.75877117 194.99055945 209.66240446 196.21144491 211.56396484 197.43554688 C213.0480687 198.38865747 214.53684382 199.33460902 216.03369141 200.26757812 C217.38974069 201.12702926 218.70274825 202.05413331 220 203 C220 203.66 220 204.32 220 205 C220.99 205 221.98 205 223 205 C223 205.66 223 206.32 223 207 C223.70125 207.0825 224.4025 207.165 225.125 207.25 C228.6903452 208.18009005 231.09015572 209.76686369 234 212 C234 212.66 234 213.32 234 214 C234.99 214 235.98 214 237 214 C237 214.66 237 215.32 237 216 C237.82177734 216.14695313 237.82177734 216.14695313 238.66015625 216.296875 C245.22743278 218.27034708 252.97127873 223.3885668 257 229 C257.0625 232.125 257.0625 232.125 256 235 C253.03199667 237.80674264 251.00001272 238.37520631 246.96289062 238.37231445 C245.96084595 238.37854324 244.95880127 238.38477203 243.9263916 238.39118958 C242.84724487 238.38197983 241.76809814 238.37277008 240.65625 238.36328125 C238.97613831 238.36402901 238.97613831 238.36402901 237.26208496 238.36479187 C234.88824697 238.36245071 232.51440653 238.35271976 230.140625 238.33618164 C226.54143516 238.31276953 222.94299575 238.31559853 219.34375 238.32226562 C217.03124565 238.31668224 214.71874439 238.30956823 212.40625 238.30078125 C211.34329712 238.30169266 210.28034424 238.30260406 209.18518066 238.30354309 C193.26796135 238.15584645 183.17239457 234.18826738 170.078125 225.39453125 C162.43515988 220.281003 154.7542273 215.22727055 147.0625 210.1875 C145.67248638 209.27610215 144.28251342 208.36464229 142.89257812 207.453125 C140.0198494 205.56926157 137.14695029 203.6856584 134.27392578 201.80224609 C128.17549759 197.80412439 122.07922374 193.80272059 115.98287964 189.80142212 C112.65535016 187.61746683 109.32766697 185.43374579 106 183.25 C104.66666594 182.37500111 103.3333326 181.50000111 102 180.625 C101.34 180.191875 100.68 179.75875 100 179.3125 C67.33333333 157.875 34.66666667 136.4375 2 115 C1.99761165 115.60537503 1.99522329 116.21075006 1.99276257 116.8344698 C1.93365692 131.55656732 1.85813546 146.27851708 1.76428509 161.00043201 C1.71929681 168.11982049 1.67988927 175.23915861 1.65356445 182.35864258 C1.62815931 189.22518283 1.58727524 196.09149023 1.53681374 202.95789146 C1.52008707 205.5817964 1.50860908 208.20574006 1.50238609 210.82969093 C1.49280813 214.49583178 1.46482389 218.16139305 1.43237305 221.82739258 C1.43452568 223.46629456 1.43452568 223.46629456 1.4367218 225.13830566 C1.41791458 226.63379692 1.41791458 226.63379692 1.39872742 228.15950012 C1.39411845 229.02690732 1.38950949 229.89431452 1.38476086 230.78800678 C0.91522105 233.48739483 0.15726496 234.35817587 -2 236 C-11.06053391 238.59323569 -20.86662776 238.31303057 -30.22021484 238.26074219 C-32.49734101 238.25001253 -34.77367866 238.26070805 -37.05078125 238.2734375 C-59.55510357 238.29659762 -59.55510357 238.29659762 -66 234 C-66.30289016 230.9126449 -66.40834837 228.02475794 -66.38768005 224.93409729 C-66.39306559 223.98303744 -66.39845113 223.03197759 -66.40399987 222.05209774 C-66.4183791 218.84523084 -66.41115122 215.63877095 -66.40405273 212.43188477 C-66.4097511 210.1409166 -66.41671327 207.84995128 -66.42485046 205.55899048 C-66.44285607 199.32146246 -66.4415996 193.08407454 -66.43590808 186.84652829 C-66.43282687 181.64739361 -66.43889675 176.44828626 -66.44494683 171.24915546 C-66.45982014 158.28601805 -66.45615808 145.32296874 -66.44408352 132.35983282 C-66.43415049 121.09400113 -66.44709042 109.82833366 -66.47101771 98.56252731 C-66.49538332 87.00352996 -66.50462261 75.44462784 -66.49836498 63.88560337 C-66.49498561 57.39258729 -66.49747535 50.8997069 -66.51461601 44.40670967 C-66.53002579 38.30245484 -66.52619602 32.19851474 -66.50731087 26.09427261 C-66.5036084 23.84923935 -66.50678129 21.60418307 -66.51719666 19.35917091 C-66.53029498 16.3033741 -66.51895831 13.24863644 -66.50120544 10.19288635 C-66.51081045 9.29639816 -66.52041546 8.39990997 -66.53031152 7.47625548 C-66.45835457 1.49074206 -66.45835457 1.49074206 -64.0929575 -1.04179478 C-61.9317625 -2.03124073 -60.26371135 -2.49949808 -57.90234375 -2.73046875 C-57.11037598 -2.81127686 -56.3184082 -2.89208496 -55.50244141 -2.9753418 C-54.23279541 -3.08036011 -54.23279541 -3.08036011 -52.9375 -3.1875 C-52.05497559 -3.26718018 -51.17245117 -3.34686035 -50.26318359 -3.42895508 C-34.09226756 -4.76861719 -15.22221895 -6.19208907 0 0 Z " fill="#DEBB59" transform="translate(85,13)"/>
<path d="M0 0 C0.83885742 0.07001221 1.67771484 0.14002441 2.54199219 0.2121582 C10.30687231 1.01506282 10.30687231 1.01506282 12.9375 4.1875 C13.28946056 7.0791726 13.38048013 8.58784011 11.62255859 10.9675293 C5.7293629 15.92067372 -0.61445489 19.47288328 -7.4375 23 C-9.77654607 24.23341893 -12.11508665 25.46779694 -14.453125 26.703125 C-15.58814453 27.29931641 -16.72316406 27.89550781 -17.89257812 28.50976562 C-22.02510235 30.69697345 -26.11127547 32.96006089 -30.1875 35.25 C-37.00621363 39.0669076 -43.8709576 42.79303356 -50.75 46.5 C-58.61696912 50.74160338 -66.42524335 55.06989404 -74.1875 59.5 C-84.46155681 65.35957768 -94.87276299 70.94121709 -105.33447266 76.45629883 C-105.94130386 76.77719482 -106.54813507 77.09809082 -107.1733551 77.42871094 C-109.40414194 78.6078777 -111.63576108 79.78504797 -113.87731934 80.94363403 C-116.22723914 82.24101011 -116.22723914 82.24101011 -118.96838379 84.18014526 C-128.82247716 90.74938586 -137.08712406 91.26459896 -148.7109375 90.96875 C-150.4621011 90.95378896 -152.21329869 90.94242025 -153.96450806 90.93444824 C-158.52571615 90.90421657 -163.08481551 90.82591508 -167.64520264 90.73681641 C-172.31786588 90.65428975 -176.99087718 90.61829562 -181.6640625 90.578125 C-190.7977906 90.49288325 -199.92996851 90.35673999 -209.0625 90.1875 C-206.21298424 87.25614154 -203.6436763 85.18815258 -200.046875 83.2265625 C-198.56030396 82.40696045 -198.56030396 82.40696045 -197.04370117 81.57080078 C-195.97740479 80.99056152 -194.9111084 80.41032227 -193.8125 79.8125 C-191.53155029 78.55389717 -189.25162627 77.29343395 -186.97265625 76.03125 C-186.39272415 75.71060577 -185.81279205 75.38996155 -185.21528625 75.05960083 C-179.50882891 71.89730245 -173.87489416 68.61703069 -168.25 65.3125 C-159.63387115 60.25990201 -150.98812523 55.26211598 -142.3125 50.3125 C-141.72951141 49.97980103 -141.14652283 49.64710205 -140.54586792 49.30432129 C-135.78867909 46.5898631 -131.02987899 43.87823475 -126.27099609 41.16674805 C-122.11741021 38.79998565 -117.96453886 36.43197536 -113.8125 34.0625 C-113.2322406 33.73145264 -112.6519812 33.40040527 -112.05413818 33.05932617 C-103.8194868 28.35939121 -95.61940883 23.60354236 -87.4375 18.8125 C-84.55113127 17.12945711 -81.66372723 15.44821803 -78.77539062 13.76855469 C-76.99578419 12.73141184 -75.21835667 11.69051927 -73.44335938 10.64550781 C-71.03244585 9.22902609 -68.611708 7.83107211 -66.1875 6.4375 C-65.50478027 6.03096191 -64.82206055 5.62442383 -64.11865234 5.20556641 C-46.69068736 -4.68899252 -19.29149967 -1.74911012 0 0 Z " fill="#E7CD6E" transform="translate(318.0625,9.8125)"/>
<path d="M0 0 C1.15338867 -0.03673828 1.15338867 -0.03673828 2.33007812 -0.07421875 C9.34164676 -0.10972036 14.64272326 1.89384268 19.6875 6.8125 C22.17856665 12.72878331 22.39401235 19.37708925 20.52734375 25.5625 C17.15253551 32.10758264 10.34372466 36.6526316 4.1875 40.375 C3.5275 40.375 2.8675 40.375 2.1875 40.375 C4.71787571 45.10138034 8.06611841 48.78909476 11.6875 52.6875 C12.26886719 53.33267578 12.85023438 53.97785156 13.44921875 54.64257812 C14.01253906 55.25166016 14.57585938 55.86074219 15.15625 56.48828125 C15.92098633 57.32033081 15.92098633 57.32033081 16.70117188 58.16918945 C18.2568017 59.69000809 18.2568017 59.69000809 21.1875 59.375 C23.50249294 53.93979918 24.59838706 49.27664234 24.9765625 43.37890625 C25.1875 41.375 25.1875 41.375 26.1875 40.375 C27.87358966 40.30294489 29.56250659 40.29113932 31.25 40.3125 C32.16910156 40.32152344 33.08820312 40.33054687 34.03515625 40.33984375 C34.74542969 40.35144531 35.45570313 40.36304688 36.1875 40.375 C36.86543697 48.71739108 34.91158898 55.54075871 32.1875 63.375 C31.51945132 65.3745388 30.85236945 67.37440183 30.1875 69.375 C34.46578642 72.62649768 37.92579306 74.96332253 43.1875 76.375 C43.28515625 82.52734375 43.28515625 82.52734375 43.1875 84.375 C41.66732745 85.89517255 40.30637658 85.69110603 38.1875 85.8125 C33.09817345 85.79629195 30.25316546 83.85977128 26.328125 80.78515625 C23.84899086 79.15200402 22.14827847 78.57083102 19.1875 78.375 C17.10288934 79.24597495 17.10288934 79.24597495 15.25 80.6875 C6.72314547 86.79812059 -3.73934792 86.43848685 -13.8125 85.375 C-20.63690591 83.61359872 -24.76560249 80.04549077 -28.75390625 74.33984375 C-31.68770448 68.89445442 -31.67821143 62.04790804 -30.28125 56.12109375 C-27.67945473 48.66921273 -23.22526738 44.69128574 -16.8125 40.375 C-17.45910385 37.14198073 -18.64373481 34.70801998 -20.3125 31.875 C-23.67906381 26.15967074 -24.79082238 21.01529971 -23.38671875 14.35546875 C-21.67011433 8.84759076 -18.64837832 5.47390978 -13.8125 2.375 C-9.28314535 0.00054478 -4.9990593 0.00825608 0 0 Z M-10.8125 13.375 C-12.34541157 16.44082314 -12.45770974 19.07338618 -11.8125 22.375 C-10.05328018 26.19091705 -7.99322954 29.78588263 -5.8125 33.375 C0.31963659 32.21153659 4.74900472 28.02400679 8.75 23.4375 C10.57635043 19.54657952 10.34772423 17.47445894 9.1875 13.375 C7.60864034 11.31561784 6.49607577 10.52928789 4.1875 9.375 C-1.93381372 8.7141148 -6.4195751 8.55695333 -10.8125 13.375 Z M-14.34765625 50.89453125 C-17.76260706 54.3459082 -18.72190596 57.55965368 -19.25 62.3125 C-19.04587074 66.94534679 -17.57801806 69.66338366 -14.8125 73.375 C-10.31167262 76.86314122 -5.45675334 76.98239225 0.0625 76.87890625 C5.21152321 76.04862626 9.05773851 73.44491119 13.1875 70.375 C12.5275 69.715 11.8675 69.055 11.1875 68.375 C10.72988281 67.91480469 10.27226563 67.45460938 9.80078125 66.98046875 C8.66253723 65.84773681 7.51295469 64.72634342 6.35546875 63.61328125 C1.74325376 59.12842526 -2.26801843 54.41391586 -6.1484375 49.28125 C-6.69757812 48.6521875 -7.24671875 48.023125 -7.8125 47.375 C-10.75037378 47.375 -12.21636434 49.03421043 -14.34765625 50.89453125 Z " fill="#D2AF2A" transform="translate(565.8125,279.625)"/>
<path d="M0 0 C1.24394531 -0.04898437 2.48789062 -0.09796875 3.76953125 -0.1484375 C7.1875 0.375 7.1875 0.375 9.18432617 2.52905273 C11.21926596 5.42013051 12.96127602 8.33130519 14.65625 11.43359375 C14.97359604 12.01127502 15.29094208 12.5889563 15.61790466 13.18414307 C16.64571498 15.05777924 17.66667817 16.93504863 18.6875 18.8125 C19.39745546 20.11000763 20.1078271 21.40728761 20.81860352 22.7043457 C22.60595208 25.96861942 24.38768286 29.23592099 26.16778564 32.50415039 C27.73221851 35.3743842 29.30182973 38.24178046 30.87109375 41.109375 C38.85779588 55.71559176 38.85779588 55.71559176 40.1875 58.375 C40.19780746 57.66312027 40.20811493 56.95124054 40.21873474 56.2177887 C40.31654898 49.52217174 40.41904004 42.82664482 40.52683926 36.13118076 C40.5820988 32.6886426 40.63552347 29.246096 40.68481445 25.8034668 C40.74150801 21.84935474 40.80607495 17.89539056 40.87109375 13.94140625 C40.89616249 12.07894005 40.89616249 12.07894005 40.92173767 10.17884827 C40.94168289 9.03774094 40.96162811 7.89663361 40.98217773 6.72094727 C40.99772202 5.710569 41.0132663 4.70019073 41.02928162 3.65919495 C41.1875 1.375 41.1875 1.375 42.1875 0.375 C43.87358966 0.30294489 45.56250659 0.29113932 47.25 0.3125 C48.16910156 0.32152344 49.08820312 0.33054687 50.03515625 0.33984375 C50.74542969 0.35144531 51.45570313 0.36304688 52.1875 0.375 C52.21063799 10.24962302 52.22842255 20.12423963 52.23931217 29.9988842 C52.2445378 34.58373851 52.25162967 39.16857431 52.26293945 43.75341797 C52.27377967 48.17541817 52.27977925 52.59740054 52.28237724 57.01941299 C52.28422944 58.70916144 52.28784614 60.39890887 52.29323006 62.08864975 C52.30045551 64.44958378 52.3014903 66.81044347 52.30102539 69.17138672 C52.30462067 69.87485229 52.30821594 70.57831787 52.31192017 71.30310059 C52.30155216 76.14689568 52.30155216 76.14689568 51.1875 78.375 C49.31775379 78.59283451 47.44053968 78.74705569 45.5625 78.875 C44.51835938 78.9678125 43.47421875 79.060625 42.3984375 79.15625 C38.18735627 78.13165603 37.13739372 76.48888279 34.76855469 72.97900391 C31.55154669 67.68057783 28.56606721 62.26659178 25.625 56.8125 C24.33355982 54.43534753 23.04093751 52.05888904 21.74609375 49.68359375 C21.41274017 49.07083588 21.0793866 48.458078 20.7359314 47.82675171 C15.33935696 37.94324484 9.74649345 28.16770903 4.1875 18.375 C4.1720388 19.48040382 4.1720388 19.48040382 4.15626526 20.60813904 C4.05845357 27.53921076 3.95596284 34.47019902 3.84816074 41.40112209 C3.79289973 44.96472968 3.73947482 48.52834543 3.69018555 52.09204102 C3.63349468 56.18515245 3.56892682 60.2781061 3.50390625 64.37109375 C3.47883751 66.29918129 3.47883751 66.29918129 3.45326233 68.26622009 C3.43331711 69.44736893 3.41337189 70.62851776 3.39282227 71.84545898 C3.37727798 72.89136703 3.3617337 73.93727509 3.34571838 75.01487732 C3.1875 77.375 3.1875 77.375 2.1875 78.375 C0.50141034 78.44705511 -1.18750659 78.45886068 -2.875 78.4375 C-4.25365234 78.42396484 -4.25365234 78.42396484 -5.66015625 78.41015625 C-6.37042969 78.39855469 -7.08070313 78.38695312 -7.8125 78.375 C-7.8356241 68.35272237 -7.85341543 58.33045103 -7.86431217 48.3081522 C-7.86954085 43.65488814 -7.87663823 39.00164226 -7.88793945 34.34838867 C-7.89876886 29.86155454 -7.90477695 25.37473796 -7.90737724 20.88789177 C-7.9092314 19.17219707 -7.91285182 17.45650338 -7.91823006 15.74081612 C-7.92544121 13.34615087 -7.92649091 10.95155904 -7.92602539 8.55688477 C-7.92962067 7.84047318 -7.93321594 7.12406158 -7.93692017 6.38594055 C-7.92260697 -0.37429407 -6.56286998 0.17573081 0 0 Z " fill="#D2AF2A" transform="translate(710.8125,285.625)"/>
<path d="M0 0 C8.95830225 5.7773312 13.31261744 12.12951318 15.81640625 22.5703125 C18.19864319 36.33086537 17.85322405 51.62556478 10.49609375 63.875 C5.45948399 70.86645829 -0.62760036 75.11545888 -8.96484375 77.3125 C-21.90685809 78.5653986 -33.67546492 78.35731911 -44.27734375 70.25 C-52.61679692 62.28118919 -54.34331917 51.4000546 -54.96484375 40.3125 C-55.06660129 27.707285 -53.23131843 16.06109835 -44.88671875 6.21875 C-34.26500768 -4.3166057 -13.36197257 -6.78703369 0 0 Z M-35.65234375 13.9375 C-36.21308594 14.54851562 -36.77382812 15.15953125 -37.3515625 15.7890625 C-41.71484427 22.61395361 -42.49522412 29.7389719 -42.40234375 37.6875 C-42.39332031 38.60998535 -42.38429688 39.5324707 -42.375 40.48291016 C-42.1738433 48.39926453 -41.4869447 55.37228244 -36.0234375 61.484375 C-30.67389183 66.41029183 -26.96198499 67.47573868 -19.65234375 67.5625 C-17.70908203 67.60117187 -17.70908203 67.60117187 -15.7265625 67.640625 C-9.17868956 67.06947097 -5.18899662 64.20362437 -0.96484375 59.3125 C5.94239759 49.64236213 5.81148107 37.68881557 4.03515625 26.3125 C2.29009158 18.73474635 -0.28476418 13.51684833 -6.96484375 9.3125 C-7.54492188 8.93867188 -8.125 8.56484375 -8.72265625 8.1796875 C-11.95940193 6.92784509 -14.88120497 7.01035521 -18.33984375 7 C-19.62632812 6.98324219 -20.9128125 6.96648437 -22.23828125 6.94921875 C-27.98363433 7.50930034 -31.85617592 9.63694623 -35.65234375 13.9375 Z " fill="#D2AF2A" transform="translate(152.96484375,287.6875)"/>
<path d="M0 0 C2.14892595 -0.00961811 4.29685907 -0.04058341 6.44555664 -0.07226562 C15.05415554 -0.13950018 22.09212703 -0.16056104 28.93188477 5.61523438 C33.90961315 11.58850844 35.51462117 16.55737584 34.97485352 24.31835938 C33.92139895 30.19918264 30.49512412 34.30760787 26.11938477 38.24023438 C24.79778018 38.92986003 23.46564422 39.60007213 22.11938477 40.24023438 C22.99981445 41.15933594 23.88024414 42.0784375 24.78735352 43.02539062 C28.81356178 47.73071835 31.04537955 53.01206168 33.43188477 58.67773438 C33.87338867 59.67611328 34.31489258 60.67449219 34.76977539 61.703125 C37.1699774 67.29379461 38.73525655 72.15941231 39.11938477 78.24023438 C35.48938477 78.24023438 31.85938477 78.24023438 28.11938477 78.24023438 C25.95016016 74.04189099 23.91776042 69.86382155 22.15454102 65.47851562 C21.82905273 64.66962891 21.50356445 63.86074219 21.16821289 63.02734375 C20.50715918 61.3688189 19.85357875 59.70729703 19.20727539 58.04296875 C17.00831574 52.6258078 14.7593132 47.83927808 9.09204102 45.34960938 C8.46168945 45.23101562 7.83133789 45.11242187 7.18188477 44.99023438 C6.55411133 44.86132812 5.92633789 44.73242188 5.27954102 44.59960938 C4.56668945 44.48101562 3.85383789 44.36242187 3.11938477 44.24023438 C1.13938477 43.91023438 -0.84061523 43.58023438 -2.88061523 43.24023438 C-2.88061523 54.79023438 -2.88061523 66.34023438 -2.88061523 78.24023438 C-6.51061523 78.24023438 -10.14061523 78.24023438 -13.88061523 78.24023438 C-13.90373933 68.21795674 -13.92153066 58.19568541 -13.93242741 48.17338657 C-13.93765609 43.52012251 -13.94475346 38.86687664 -13.95605469 34.21362305 C-13.9668841 29.72678892 -13.97289218 25.23997233 -13.97549248 20.75312614 C-13.97734663 19.03743145 -13.98096706 17.32173776 -13.98634529 15.60605049 C-13.99355645 13.21138525 -13.99460615 10.81679341 -13.99414062 8.42211914 C-13.9977359 7.70570755 -14.00133118 6.98929596 -14.0050354 6.25117493 C-13.9862961 -2.59954257 -7.21050621 0.01952523 0 0 Z M-2.88061523 9.24023438 C-2.88061523 17.82023437 -2.88061523 26.40023438 -2.88061523 35.24023438 C8.73527287 35.46519448 8.73527287 35.46519448 19.18188477 31.24023438 C22.00855342 28.32238286 22.33775276 26.46627762 22.49438477 22.49023438 C22.41205441 18.42076248 22.01639934 15.40132599 18.99829102 12.35742188 C12.66311656 8.59056139 4.15173179 9.24023438 -2.88061523 9.24023438 Z " fill="#D2AF2A" transform="translate(224.880615234375,285.759765625)"/>
<path d="M0 0 C2.10241603 -0.13496251 4.2072961 -0.23197307 6.3125 -0.3125 C7.48425781 -0.37050781 8.65601563 -0.42851562 9.86328125 -0.48828125 C11.41595703 -0.24658203 11.41595703 -0.24658203 13 0 C15.52315838 3.49297892 16.95967478 7.23933004 18.42016602 11.27148438 C18.64172363 11.87865799 18.86328125 12.4858316 19.09155273 13.11140442 C19.81723017 15.10378004 20.53556772 17.09871797 21.25390625 19.09375 C21.76001564 20.48727469 22.26661006 21.8806233 22.77366638 23.27380371 C24.1041035 26.93299565 25.42843607 30.59436658 26.75134277 34.25628662 C28.35797485 38.7003349 29.97132861 43.1419461 31.5841589 47.58374786 C32.83928265 51.04059959 34.09326165 54.49785069 35.34364319 57.9564209 C35.57448105 58.59403854 35.80531891 59.23165619 36.04315186 59.88859558 C36.66478906 61.60575942 37.28567806 63.32319406 37.9065094 65.04064941 C38.59663151 66.90835023 39.33642093 68.75910363 40.14317322 70.57946777 C41 73 41 73 41 78 C37.04 78 33.08 78 29 78 C26.69 71.4 24.38 64.8 22 58 C11.77 58 1.54 58 -9 58 C-12.465 67.9 -12.465 67.9 -16 78 C-19.63 78 -23.26 78 -27 78 C-27.52281554 72.13078034 -25.65223772 67.57618559 -23.59765625 62.1953125 C-23.24420639 61.24641144 -22.89075653 60.29751038 -22.52659607 59.31985474 C-21.38113309 56.25135343 -20.22203616 53.18820764 -19.0625 50.125 C-18.27778073 48.03124851 -17.4939269 45.93717245 -16.7109375 43.84277344 C-15.17607029 39.74178698 -13.63592242 35.64285542 -12.09033203 31.54589844 C-10.35018844 26.93302329 -8.62148637 22.31604974 -6.90234375 17.6953125 C-3.88833471 9.60571921 -3.88833471 9.60571921 -2.46875 5.828125 C-2.20513672 5.1259082 -1.94152344 4.42369141 -1.66992188 3.70019531 C-1 2 -1 2 0 0 Z M6 13 C4.28485254 17.64253012 2.57603173 22.28732072 0.87304688 26.93432617 C0.29275287 28.51504314 -0.28926866 30.09512703 -0.87304688 31.67456055 C-1.71157911 33.94415928 -2.54388408 36.21595792 -3.375 38.48828125 C-3.63748535 39.19463211 -3.8999707 39.90098297 -4.17041016 40.6287384 C-5.23695003 43.56071715 -6 45.85349781 -6 49 C2.25 49 10.5 49 19 49 C16.60576548 40.11147126 16.60576548 40.11147126 13.73828125 31.45703125 C13.34189453 30.36455078 12.94550781 29.27207031 12.53710938 28.14648438 C12.13298828 27.04626953 11.72886719 25.94605469 11.3125 24.8125 C10.89677734 23.66974609 10.48105469 22.52699219 10.05273438 21.34960938 C9.03907179 18.56495009 8.02143976 15.78181383 7 13 C6.67 13 6.34 13 6 13 Z " fill="#D2AF2A" transform="translate(995,286)"/>
<path d="M0 0 C2.10241603 -0.13496251 4.2072961 -0.23197307 6.3125 -0.3125 C7.48425781 -0.37050781 8.65601563 -0.42851562 9.86328125 -0.48828125 C11.41595703 -0.24658203 11.41595703 -0.24658203 13 0 C15.52315838 3.49297892 16.95967478 7.23933004 18.42016602 11.27148438 C18.64172363 11.87865799 18.86328125 12.4858316 19.09155273 13.11140442 C19.81723017 15.10378004 20.53556772 17.09871797 21.25390625 19.09375 C21.76001564 20.48727469 22.26661006 21.8806233 22.77366638 23.27380371 C24.1041035 26.93299565 25.42843607 30.59436658 26.75134277 34.25628662 C28.35797485 38.7003349 29.97132861 43.1419461 31.5841589 47.58374786 C32.83928265 51.04059959 34.09326165 54.49785069 35.34364319 57.9564209 C35.57448105 58.59403854 35.80531891 59.23165619 36.04315186 59.88859558 C36.66478906 61.60575942 37.28567806 63.32319406 37.9065094 65.04064941 C38.59663151 66.90835023 39.33642093 68.75910363 40.14317322 70.57946777 C41 73 41 73 41 78 C37.04 78 33.08 78 29 78 C26.69 71.4 24.38 64.8 22 58 C11.77 58 1.54 58 -9 58 C-12.465 67.9 -12.465 67.9 -16 78 C-19.63 78 -23.26 78 -27 78 C-27.52281554 72.13078034 -25.65223772 67.57618559 -23.59765625 62.1953125 C-23.24420639 61.24641144 -22.89075653 60.29751038 -22.52659607 59.31985474 C-21.38113309 56.25135343 -20.22203616 53.18820764 -19.0625 50.125 C-18.27778073 48.03124851 -17.4939269 45.93717245 -16.7109375 43.84277344 C-15.17607029 39.74178698 -13.63592242 35.64285542 -12.09033203 31.54589844 C-10.35018844 26.93302329 -8.62148637 22.31604974 -6.90234375 17.6953125 C-3.88833471 9.60571921 -3.88833471 9.60571921 -2.46875 5.828125 C-2.20513672 5.1259082 -1.94152344 4.42369141 -1.66992188 3.70019531 C-1 2 -1 2 0 0 Z M6 13 C4.28485254 17.64253012 2.57603173 22.28732072 0.87304688 26.93432617 C0.29275287 28.51504314 -0.28926866 30.09512703 -0.87304688 31.67456055 C-1.71157911 33.94415928 -2.54388408 36.21595792 -3.375 38.48828125 C-3.63748535 39.19463211 -3.8999707 39.90098297 -4.17041016 40.6287384 C-5.23695003 43.56071715 -6 45.85349781 -6 49 C2.25 49 10.5 49 19 49 C16.60576548 40.11147126 16.60576548 40.11147126 13.73828125 31.45703125 C13.34189453 30.36455078 12.94550781 29.27207031 12.53710938 28.14648438 C12.13298828 27.04626953 11.72886719 25.94605469 11.3125 24.8125 C10.89677734 23.66974609 10.48105469 22.52699219 10.05273438 21.34960938 C9.03907179 18.56495009 8.02143976 15.78181383 7 13 C6.67 13 6.34 13 6 13 Z " fill="#D2AF2A" transform="translate(408,286)"/>
<path d="M0 0 C3.63 0 7.26 0 11 0 C11.33 10.89 11.66 21.78 12 33 C19.30846902 24.17194831 26.59987726 15.35006268 33.62231445 6.29248047 C35.33728803 4.08529792 37.02106853 1.97893147 39 0 C41.6015625 -0.1953125 41.6015625 -0.1953125 44.625 -0.125 C46.12933594 -0.09792969 46.12933594 -0.09792969 47.6640625 -0.0703125 C48.43492188 -0.04710937 49.20578125 -0.02390625 50 0 C50.47478612 2.62881579 50.40749041 4.37699738 48.92626953 6.64160156 C47.35621355 8.52229341 45.72842122 10.32865242 44.0625 12.125 C42.86605029 13.45861605 41.67074433 14.79325906 40.4765625 16.12890625 C39.88520508 16.78391113 39.29384766 17.43891602 38.68457031 18.11376953 C36.36566255 20.71027407 34.14548233 23.37082923 31.9375 26.0625 C30.93009766 27.28646484 30.93009766 27.28646484 29.90234375 28.53515625 C27.79095104 31.27086221 25.88623199 34.10553711 24 37 C24.36125977 37.46148437 24.72251953 37.92296875 25.09472656 38.3984375 C31.71351645 46.86112274 38.30493643 55.34141148 44.75 63.9375 C45.25047852 64.60458984 45.75095703 65.27167969 46.26660156 65.95898438 C52 73.63273378 52 73.63273378 52 78 C47.61639954 79.30062871 44.38030032 79.38452224 40 78 C35.0358232 73.7770612 31.49660487 68.00459857 27.84375 62.66650391 C25.37797646 59.10040505 22.79014759 55.63170389 20.1953125 52.15893555 C17.44134535 48.45569411 14.7243272 44.72510046 12 41 C11.67 53.21 11.34 65.42 11 78 C7.37 78 3.74 78 0 78 C0 52.26 0 26.52 0 0 Z " fill="#D2AF2A" transform="translate(19,286)"/>
<path d="M0 0 C1.42855277 -0.0164183 2.85702835 -0.04351772 4.28515625 -0.08203125 C13.90923724 -0.34004951 22.27586136 0.09836328 29.86572266 6.79370117 C35.19405738 12.63149529 35.62897894 18.8199378 35.47924805 26.38134766 C34.89025905 33.37559203 32.27450983 38.41695281 27.22924805 43.35009766 C22.33354523 46.34883539 17.57956247 48.48667695 11.7800293 48.44775391 C11.01601807 48.44525635 10.25200684 48.44275879 9.46484375 48.44018555 C8.50022217 48.43108154 7.53560059 48.42197754 6.54174805 48.41259766 C1.93206055 48.38166016 1.93206055 48.38166016 -2.77075195 48.35009766 C-2.77075195 58.25009766 -2.77075195 68.15009766 -2.77075195 78.35009766 C-6.40075195 78.35009766 -10.03075195 78.35009766 -13.77075195 78.35009766 C-13.79387605 68.32782002 -13.81166738 58.30554869 -13.82256413 48.28324986 C-13.82779281 43.62998579 -13.83489018 38.97673992 -13.84619141 34.32348633 C-13.85702082 29.8366522 -13.8630289 25.34983561 -13.8656292 20.86298943 C-13.86748335 19.14729473 -13.87110378 17.43160104 -13.87648201 15.71591377 C-13.88369317 13.32124853 -13.88474287 10.9266567 -13.88427734 8.53198242 C-13.88787262 7.81557083 -13.8914679 7.09915924 -13.89517212 6.36103821 C-13.87653912 -2.43947 -7.19671338 0.06042855 0 0 Z M-2.77075195 9.35009766 C-2.77075195 19.25009766 -2.77075195 29.15009766 -2.77075195 39.35009766 C8.66558288 39.66210838 8.66558288 39.66210838 18.66674805 34.97509766 C22.07523127 31.48348069 23.5183803 28.86955907 23.60424805 23.97509766 C23.49157925 19.40825577 22.29566591 16.83089631 19.22924805 13.35009766 C12.94749887 8.28979971 4.89553681 9.35009766 -2.77075195 9.35009766 Z " fill="#D2AF2A" transform="translate(908.770751953125,285.64990234375)"/>
<path d="M0 0 C1.36560059 0.00303635 1.36560059 0.00303635 2.75878906 0.00613403 C3.68723633 0.00517731 4.61568359 0.00422058 5.57226562 0.00323486 C7.53938871 0.00255298 9.50651403 0.00440781 11.47363281 0.00857544 C14.49581932 0.01392358 17.51785721 0.00863071 20.54003906 0.00222778 C22.44628939 0.00288856 24.35253963 0.00416972 26.25878906 0.00613403 C27.16918945 0.0041098 28.07958984 0.00208557 29.01757812 0 C35.39383938 0.02399685 35.39383938 0.02399685 36.50878906 1.13894653 C36.63378906 4.63894653 36.63378906 4.63894653 36.50878906 8.13894653 C35.50878906 9.13894653 35.50878906 9.13894653 32.45776367 9.25247192 C31.10887636 9.25231288 29.75998292 9.24662265 28.41113281 9.23660278 C27.34784508 9.23448036 27.34784508 9.23448036 26.26307678 9.23231506 C23.99077194 9.22670096 21.71856431 9.21414616 19.44628906 9.20144653 C17.90918111 9.19643335 16.37207161 9.19187013 14.83496094 9.18777466 C11.05950239 9.17757623 7.28425502 9.15800385 3.50878906 9.13894653 C3.50878906 17.05894653 3.50878906 24.97894653 3.50878906 33.13894653 C12.74878906 33.13894653 21.98878906 33.13894653 31.50878906 33.13894653 C32.00378906 36.60394653 32.00378906 36.60394653 32.50878906 40.13894653 C31.50878906 41.13894653 31.50878906 41.13894653 28.82495117 41.25247192 C27.65714111 41.24723511 26.48933105 41.24199829 25.28613281 41.23660278 C24.15167725 41.23410522 23.01722168 41.23160767 21.84838867 41.22903442 C19.66934937 41.21537842 19.66934937 41.21537842 17.44628906 41.20144653 C12.84691406 41.18082153 8.24753906 41.16019653 3.50878906 41.13894653 C3.50878906 50.37894653 3.50878906 59.61894653 3.50878906 69.13894653 C14.39878906 69.13894653 25.28878906 69.13894653 36.50878906 69.13894653 C36.50878906 72.10894653 36.50878906 75.07894653 36.50878906 78.13894653 C30.40324196 78.16359167 24.29772355 78.18178024 18.19213867 78.19387817 C16.1133575 78.19891942 14.0345799 78.20575228 11.95581055 78.21438599 C8.97476321 78.22646076 5.99376257 78.23217677 3.01269531 78.23660278 C1.60957848 78.24434471 1.60957848 78.24434471 0.17811584 78.25224304 C-1.11310936 78.25235634 -1.11310936 78.25235634 -2.43041992 78.25247192 C-3.19208969 78.25469254 -3.95375946 78.25691315 -4.73851013 78.25920105 C-6.49121094 78.13894653 -6.49121094 78.13894653 -7.49121094 77.13894653 C-7.59146789 74.77133078 -7.62740029 72.4328758 -7.62060547 70.06472778 C-7.62235779 69.32491669 -7.62411011 68.58510559 -7.62591553 67.82287598 C-7.63033403 65.3657093 -7.62739607 62.908614 -7.62402344 60.45144653 C-7.62469648 58.75133246 -7.6256665 57.05121848 -7.62692261 55.35110474 C-7.62839958 51.78330573 -7.62624505 48.21553171 -7.62158203 44.6477356 C-7.61588474 40.0640616 -7.61916375 35.48044614 -7.6251545 30.89677429 C-7.62876013 27.38475093 -7.62762151 23.87274155 -7.6250267 20.36071777 C-7.62435744 18.6701456 -7.62518583 16.97957218 -7.62750626 15.28900146 C-7.63003283 12.93035496 -7.62619215 10.57180459 -7.62060547 8.21316528 C-7.6226297 7.50767548 -7.62465393 6.80218567 -7.6267395 6.07531738 C-7.59759868 -0.53246708 -6.44629167 0.0242604 0 0 Z " fill="#D2AF2A" transform="translate(816.4912109375,285.8610534667969)"/>
<path d="M0 0 C1.36560059 0.00303635 1.36560059 0.00303635 2.75878906 0.00613403 C3.68723633 0.00517731 4.61568359 0.00422058 5.57226562 0.00323486 C7.53938871 0.00255298 9.50651403 0.00440781 11.47363281 0.00857544 C14.49581932 0.01392358 17.51785721 0.00863071 20.54003906 0.00222778 C22.44628939 0.00288856 24.35253963 0.00416972 26.25878906 0.00613403 C27.16918945 0.0041098 28.07958984 0.00208557 29.01757812 0 C35.39383938 0.02399685 35.39383938 0.02399685 36.50878906 1.13894653 C36.63378906 4.63894653 36.63378906 4.63894653 36.50878906 8.13894653 C35.50878906 9.13894653 35.50878906 9.13894653 32.45776367 9.25247192 C31.10887636 9.25231288 29.75998292 9.24662265 28.41113281 9.23660278 C27.34784508 9.23448036 27.34784508 9.23448036 26.26307678 9.23231506 C23.99077194 9.22670096 21.71856431 9.21414616 19.44628906 9.20144653 C17.90918111 9.19643335 16.37207161 9.19187013 14.83496094 9.18777466 C11.05950239 9.17757623 7.28425502 9.15800385 3.50878906 9.13894653 C3.50878906 17.05894653 3.50878906 24.97894653 3.50878906 33.13894653 C12.74878906 33.13894653 21.98878906 33.13894653 31.50878906 33.13894653 C32.00378906 36.60394653 32.00378906 36.60394653 32.50878906 40.13894653 C31.50878906 41.13894653 31.50878906 41.13894653 28.82495117 41.25247192 C27.65714111 41.24723511 26.48933105 41.24199829 25.28613281 41.23660278 C24.15167725 41.23410522 23.01722168 41.23160767 21.84838867 41.22903442 C19.66934937 41.21537842 19.66934937 41.21537842 17.44628906 41.20144653 C12.84691406 41.18082153 8.24753906 41.16019653 3.50878906 41.13894653 C3.50878906 50.37894653 3.50878906 59.61894653 3.50878906 69.13894653 C14.39878906 69.13894653 25.28878906 69.13894653 36.50878906 69.13894653 C36.50878906 72.10894653 36.50878906 75.07894653 36.50878906 78.13894653 C30.40324196 78.16359167 24.29772355 78.18178024 18.19213867 78.19387817 C16.1133575 78.19891942 14.0345799 78.20575228 11.95581055 78.21438599 C8.97476321 78.22646076 5.99376257 78.23217677 3.01269531 78.23660278 C1.60957848 78.24434471 1.60957848 78.24434471 0.17811584 78.25224304 C-1.11310936 78.25235634 -1.11310936 78.25235634 -2.43041992 78.25247192 C-3.19208969 78.25469254 -3.95375946 78.25691315 -4.73851013 78.25920105 C-6.49121094 78.13894653 -6.49121094 78.13894653 -7.49121094 77.13894653 C-7.59146789 74.77133078 -7.62740029 72.4328758 -7.62060547 70.06472778 C-7.62235779 69.32491669 -7.62411011 68.58510559 -7.62591553 67.82287598 C-7.63033403 65.3657093 -7.62739607 62.908614 -7.62402344 60.45144653 C-7.62469648 58.75133246 -7.6256665 57.05121848 -7.62692261 55.35110474 C-7.62839958 51.78330573 -7.62624505 48.21553171 -7.62158203 44.6477356 C-7.61588474 40.0640616 -7.61916375 35.48044614 -7.6251545 30.89677429 C-7.62876013 27.38475093 -7.62762151 23.87274155 -7.6250267 20.36071777 C-7.62435744 18.6701456 -7.62518583 16.97957218 -7.62750626 15.28900146 C-7.63003283 12.93035496 -7.62619215 10.57180459 -7.62060547 8.21316528 C-7.6226297 7.50767548 -7.62465393 6.80218567 -7.6267395 6.07531738 C-7.59759868 -0.53246708 -6.44629167 0.0242604 0 0 Z " fill="#D2AF2A" transform="translate(311.4912109375,285.8610534667969)"/>
<path d="M0 0 C3.63 0 7.26 0 11 0 C11 22.77 11 45.54 11 69 C20.9 69 30.8 69 41 69 C42 75 42 75 41 78 C35.32169922 78.02464705 29.64342931 78.04283462 23.96508789 78.05493164 C22.03181415 78.05997256 20.09854424 78.06680519 18.1652832 78.07543945 C15.39273128 78.08751565 12.62022959 78.09323057 9.84765625 78.09765625 C8.54297142 78.10539818 8.54297142 78.10539818 7.21192932 78.11329651 C5.14094186 78.11349185 3.07005676 78.06208168 1 78 C-0.68503699 76.31496301 -0.11965983 74.23740116 -0.12442017 71.98905945 C-0.12082489 71.27264786 -0.11722961 70.55623627 -0.11352539 69.81811523 C-0.11367142 69.06694427 -0.11381744 68.31577332 -0.1139679 67.5418396 C-0.11326863 65.04739541 -0.10547564 62.55302497 -0.09765625 60.05859375 C-0.09579212 58.33366436 -0.09436819 56.60873443 -0.09336853 54.88380432 C-0.08954297 50.33487497 -0.07971238 45.78597733 -0.06866455 41.23706055 C-0.05845124 36.59879994 -0.05387108 31.96053423 -0.04882812 27.32226562 C-0.03809014 18.21482978 -0.02101327 9.10741752 0 0 Z " fill="#D2AF2A" transform="translate(1073,286)"/>
</svg>
